<svg width="32" height="32" viewBox="0 0 32 32" fill="none" xmlns="http://www.w3.org/2000/svg">
<path d="M21.5 15C21.5 16.0878 21.1774 17.1512 20.5731 18.0556C19.9687 18.9601 19.1098 19.6651 18.1048 20.0813C17.0998 20.4976 15.9939 20.6065 14.927 20.3943C13.8601 20.1821 12.8801 19.6583 12.1109 18.8891C11.3417 18.1199 10.8179 17.1399 10.6057 16.073C10.3935 15.0061 10.5024 13.9002 10.9187 12.8952C11.335 11.8902 12.0399 11.0313 12.9444 10.4269C13.8488 9.82257 14.9122 9.5 16 9.5C17.4582 9.50165 18.8562 10.0816 19.8873 11.1127C20.9184 12.1438 21.4984 13.5418 21.5 15ZM29 16C29 18.5712 28.2376 21.0846 26.8091 23.2224C25.3807 25.3603 23.3503 27.0265 20.9749 28.0104C18.5995 28.9944 15.9856 29.2518 13.4638 28.7502C10.9421 28.2486 8.6257 27.0105 6.80762 25.1924C4.98953 23.3743 3.75141 21.0579 3.2498 18.5362C2.74819 16.0144 3.00563 13.4006 3.98957 11.0251C4.97351 8.64968 6.63975 6.61935 8.77759 5.1909C10.9154 3.76244 13.4288 3 16 3C19.4467 3.00364 22.7512 4.37445 25.1884 6.81163C27.6256 9.24882 28.9964 12.5533 29 16ZM27 16C26.9984 14.5194 26.6982 13.0544 26.1174 11.6924C25.5366 10.3305 24.6871 9.09974 23.6198 8.07367C22.5524 7.04759 21.289 6.24732 19.9053 5.7207C18.5215 5.19408 17.0457 4.95194 15.5663 5.00875C9.67876 5.23625 4.98376 10.14 5.00001 16.0312C5.00565 18.7132 5.99478 21.2998 7.78001 23.3013C8.50703 22.2468 9.43056 21.3423 10.5 20.6375C10.5912 20.5773 10.6996 20.5486 10.8086 20.5558C10.9177 20.563 11.0213 20.6058 11.1038 20.6775C12.4627 21.8529 14.1995 22.4998 15.9963 22.4998C17.793 22.4998 19.5298 21.8529 20.8888 20.6775C20.9712 20.6058 21.0749 20.563 21.1839 20.5558C21.2929 20.5486 21.4013 20.5773 21.4925 20.6375C22.5633 21.342 23.4881 22.2464 24.2163 23.3013C26.0103 21.2925 27.0013 18.6932 27 16Z" fill="#FF7C17"/>
</svg>
