<svg width="32" height="32" viewBox="0 0 32 32" fill="none" xmlns="http://www.w3.org/2000/svg">
<path d="M21 13.9997C21 15.3842 20.5895 16.7375 19.8203 17.8887C19.0512 19.0398 17.9579 19.937 16.6788 20.4669C15.3997 20.9967 13.9923 21.1353 12.6344 20.8652C11.2765 20.5951 10.0293 19.9284 9.05029 18.9494C8.07132 17.9705 7.40464 16.7232 7.13454 15.3653C6.86444 14.0075 7.00307 12.6 7.53288 11.3209C8.0627 10.0418 8.9599 8.94858 10.111 8.17941C11.2622 7.41024 12.6156 6.9997 14 6.9997C15.8566 6.9997 17.637 7.7372 18.9498 9.04995C20.2625 10.3627 21 12.1432 21 13.9997ZM28.7075 28.7072C28.6147 28.8002 28.5044 28.8739 28.383 28.9243C28.2616 28.9746 28.1315 29.0005 28 29.0005C27.8686 29.0005 27.7385 28.9746 27.6171 28.9243C27.4957 28.8739 27.3854 28.8002 27.2925 28.7072L21.035 22.4484C18.8589 24.2588 16.0687 25.1606 13.2446 24.9662C10.4206 24.7718 7.78018 23.4962 5.87265 21.4048C3.96511 19.3133 2.93729 16.5669 3.00296 13.737C3.06864 10.907 4.22276 8.21132 6.22527 6.21058C8.22777 4.20984 10.9245 3.0581 13.7545 2.99493C16.5845 2.93176 19.33 3.96201 21.4197 5.87139C23.5095 7.78077 24.7828 10.4223 24.9747 13.2465C25.1666 16.0707 24.2623 18.8602 22.45 21.0347L28.7075 27.2922C28.8005 27.3851 28.8743 27.4954 28.9246 27.6168C28.9749 27.7382 29.0008 27.8683 29.0008 27.9997C29.0008 28.1311 28.9749 28.2612 28.9246 28.3826C28.8743 28.504 28.8005 28.6143 28.7075 28.7072ZM14 22.9997C15.7801 22.9997 17.5201 22.4719 19.0002 21.4829C20.4802 20.494 21.6338 19.0884 22.315 17.4438C22.9961 15.7993 23.1744 13.9897 22.8271 12.2439C22.4798 10.4981 21.6227 8.89441 20.364 7.63574C19.1053 6.37706 17.5017 5.5199 15.7559 5.17263C14.01 4.82536 12.2004 5.00359 10.5559 5.68478C8.91135 6.36597 7.50575 7.51952 6.51681 8.99956C5.52788 10.4796 5.00004 12.2197 5.00004 13.9997C5.00269 16.3858 5.95175 18.6735 7.639 20.3607C9.32625 22.048 11.6139 22.997 14 22.9997Z" fill="#FF7C17"/>
</svg>
