<svg width="32" height="32" viewBox="0 0 32 32" fill="none" xmlns="http://www.w3.org/2000/svg">
<path d="M30 25.9998H28V14.4436C28 14.1668 27.9426 13.893 27.8314 13.6395C27.7201 13.3861 27.5575 13.1584 27.3538 12.9711L17.3538 3.53608C17.3489 3.53181 17.3443 3.52722 17.34 3.52233C16.9718 3.18749 16.492 3.00195 15.9944 3.00195C15.4967 3.00195 15.0169 3.18749 14.6488 3.52233L14.635 3.53608L4.64625 12.9711C4.4425 13.1584 4.27985 13.3861 4.16861 13.6395C4.05737 13.893 3.99996 14.1668 4 14.4436V25.9998H2C1.73478 25.9998 1.48043 26.1052 1.29289 26.2927C1.10536 26.4803 1 26.7346 1 26.9998C1 27.265 1.10536 27.5194 1.29289 27.7069C1.48043 27.8945 1.73478 27.9998 2 27.9998H30C30.2652 27.9998 30.5196 27.8945 30.7071 27.7069C30.8946 27.5194 31 27.265 31 26.9998C31 26.7346 30.8946 26.4803 30.7071 26.2927C30.5196 26.1052 30.2652 25.9998 30 25.9998ZM6 14.4436L6.01375 14.4311L16 4.99983L25.9875 14.4286L26.0012 14.4411V25.9998H20V19.9998C20 19.4694 19.7893 18.9607 19.4142 18.5856C19.0391 18.2105 18.5304 17.9998 18 17.9998H14C13.4696 17.9998 12.9609 18.2105 12.5858 18.5856C12.2107 18.9607 12 19.4694 12 19.9998V25.9998H6V14.4436ZM18 25.9998H14V19.9998H18V25.9998Z" fill="#999999"/>
</svg>
