<svg width="32" height="32" viewBox="0 0 32 32" fill="none" xmlns="http://www.w3.org/2000/svg">
<path d="M30 12.75C30 21.5 17.0262 28.5825 16.4737 28.875C16.3281 28.9533 16.1654 28.9943 16 28.9943C15.8346 28.9943 15.6719 28.9533 15.5262 28.875C14.9738 28.5825 2 21.5 2 12.75C2.00232 10.6953 2.81958 8.72539 4.27248 7.27248C5.72539 5.81958 7.69528 5.00232 9.75 5C12.3313 5 14.5912 6.11 16 7.98625C17.4088 6.11 19.6688 5 22.25 5C24.3047 5.00232 26.2746 5.81958 27.7275 7.27248C29.1804 8.72539 29.9977 10.6953 30 12.75Z" fill="#FF7C17"/>
</svg>
