<svg xmlns="http://www.w3.org/2000/svg" width="15" height="12" fill="currentColor" viewBox="0 0 15 12">
  <g clip-path="url(#a)">
    <path fill="#F6F6F6" d="M-33-1072h360V193H-33z"/>
    <g filter="url(#b)">
      <path fill="#fff" fill-rule="evenodd" d="M319-223H-25V6H-.132c0-2.18 1.855-3.948 4.144-3.948 2.29 0 4.145 1.767 4.145 3.948h8.289c0-2.18 1.855-3.948 4.144-3.948 2.29 0 4.145 1.767 4.145 3.948h8.289c0-2.18 1.855-3.948 4.145-3.948 2.289 0 4.144 1.767 4.144 3.948h8.29c0-2.18 1.855-3.948 4.144-3.948 2.29 0 4.145 1.767 4.145 3.948h8.289c0-2.18 1.855-3.948 4.144-3.948 2.29 0 4.145 1.767 4.145 3.948h8.289c0-2.18 1.855-3.948 4.144-3.948 2.29 0 4.145 1.767 4.145 3.948h8.29c0-2.18 1.855-3.948 4.144-3.948s4.145 1.767 4.145 3.948h8.289c0-2.18 1.855-3.948 4.144-3.948s4.145 1.767 4.145 3.948h8.289c0-2.18 1.856-3.948 4.145-3.948 2.289 0 4.144 1.767 4.144 3.948h8.289c0-2.18 1.856-3.948 4.145-3.948 2.289 0 4.144 1.767 4.144 3.948h8.289c0-2.18 1.856-3.948 4.145-3.948 2.289 0 4.145 1.767 4.145 3.948h8.289c0-2.18 1.856-3.948 4.145-3.948 2.289 0 4.144 1.767 4.144 3.948h8.289c0-2.18 1.856-3.948 4.145-3.948 2.289 0 4.144 1.767 4.144 3.948h8.29c0-2.18 1.855-3.948 4.144-3.948s4.145 1.767 4.145 3.948h8.289c0-2.18 1.855-3.948 4.144-3.948s4.145 1.767 4.145 3.948h8.289c0-2.18 1.856-3.948 4.145-3.948 2.289 0 4.144 1.767 4.144 3.948h8.29c0-2.18 1.855-3.948 4.144-3.948S273.41 3.819 273.41 6h8.289c0-2.18 1.855-3.948 4.144-3.948s4.145 1.767 4.145 3.948h8.289c0-2.18 1.856-3.948 4.145-3.948 2.289 0 4.144 1.767 4.144 3.948H319v-229Z" clip-rule="evenodd"/>
    </g>
  </g>
  <defs>
    <clipPath id="a">
      <path fill="#fff" d="M-33-1072h360V193H-33z"/>
    </clipPath>
    <filter id="b" width="368" height="257" x="-37" y="-223" color-interpolation-filters="sRGB" filterUnits="userSpaceOnUse">
      <feFlood flood-opacity="0" result="BackgroundImageFix"/>
      <feColorMatrix in="SourceAlpha" result="hardAlpha" values="0 0 0 0 0 0 0 0 0 0 0 0 0 0 0 0 0 0 127 0"/>
      <feOffset dy="4"/>
      <feGaussianBlur stdDeviation="2"/>
      <feComposite in2="hardAlpha" operator="out"/>
      <feColorMatrix values="0 0 0 0 0 0 0 0 0 0 0 0 0 0 0 0 0 0 0.1 0"/>
      <feBlend in2="BackgroundImageFix" result="effect1_dropShadow_2443_25698"/>
      <feBlend in="SourceGraphic" in2="effect1_dropShadow_2443_25698" result="shape"/>
    </filter>
  </defs>
</svg>
