<svg width="220" height="313" viewBox="0 0 220 313" fill="none" xmlns="http://www.w3.org/2000/svg">
<g clip-path="url(#clip0_2436_16104)">
<path d="M41.631 42H55.2661C60.1748 42 62.9712 44.5096 62.9712 48.4489C62.9712 48.9788 62.9117 49.5187 62.8125 50.1086C62.0688 54.4979 58.7765 56.8775 54.1158 56.8775H47.9676L46.4801 63.9263H37L41.631 42ZM49.9211 47.6391L49.0485 51.6484H51.4086C52.4994 51.6484 53.3324 51.0585 53.5506 49.7987C53.5803 49.5787 53.6101 49.3588 53.6101 49.1688C53.6101 48.199 53.0547 47.6291 51.9639 47.6291H49.9112L49.9211 47.6391Z" fill="#151515"/>
<path d="M62.376 56.5978C62.376 55.9379 62.4355 55.248 62.5644 54.5281C63.556 48.8891 67.9986 45.5996 73.651 45.5996C79.6504 45.5996 82.9427 48.5091 82.9427 52.9584C82.9427 53.8382 82.8138 54.8381 82.6353 55.8679H70.8942C70.805 56.4278 70.7653 56.9377 70.7653 57.3676C70.7653 58.7474 71.2016 59.3373 72.0743 59.3373C72.8478 59.3373 73.532 58.5874 74.0972 57.0177H82.3279C80.8404 61.9969 76.6458 64.4065 71.6379 64.4065C65.8567 64.4065 62.3859 61.497 62.3859 56.5778L62.376 56.5978ZM71.3801 53.2783H74.831C74.9203 52.7484 74.96 52.3385 74.96 51.9985C74.96 50.9987 74.4046 50.4588 73.5915 50.4588C72.6891 50.4588 71.9454 51.2087 71.39 53.2783H71.3801Z" fill="#151515"/>
<path d="M85.9774 46.0993H95.0807L94.4957 48.9488C96.0129 46.8792 97.9763 45.8193 100.495 45.8193C100.743 45.8193 100.991 45.8193 101.209 45.8493L99.7514 52.7982C98.9481 52.4582 97.9763 52.2683 96.9847 52.2683C95.7154 52.2683 94.4659 52.5482 93.6032 53.1781L91.3323 63.9163H82.229L85.9873 46.0993H85.9774Z" fill="#151515"/>
<path d="M99.9497 56.7175C99.9497 55.9676 100.009 55.1877 100.198 54.3379C101.348 48.6688 105.572 45.5693 111.195 45.5693C117.194 45.5693 120.516 48.4789 120.516 53.1181C120.516 53.528 120.516 53.9279 120.457 54.3379H112.316C112.345 54.0579 112.345 53.778 112.345 53.488C112.345 52.1682 111.998 51.1984 111.106 51.1984C110.114 51.1984 109.271 52.1082 108.686 54.9278C108.498 55.8076 108.438 56.4975 108.438 57.0274C108.438 58.3072 108.875 58.8171 109.708 58.8171C110.54 58.8171 111.354 58.0073 112.038 55.7476H120.179C118.969 61.7566 114.586 64.4262 109.182 64.4262C103.777 64.4262 99.9596 61.7366 99.9596 56.7175H99.9497Z" fill="#151515"/>
<path d="M121.221 56.5978C121.221 55.9379 121.28 55.248 121.409 54.5281C122.401 48.8891 126.843 45.5996 132.496 45.5996C138.495 45.5996 141.787 48.5091 141.787 52.9584C141.787 53.8382 141.659 54.8381 141.48 55.8679H129.739C129.65 56.4278 129.61 56.9377 129.61 57.3676C129.61 58.7474 130.046 59.3373 130.919 59.3373C131.692 59.3373 132.377 58.5874 132.942 57.0177H141.173C139.685 61.9969 135.49 64.4065 130.493 64.4065C124.711 64.4065 121.231 61.497 121.231 56.5778L121.221 56.5978ZM130.235 53.2783H133.686C133.775 52.7484 133.805 52.3385 133.805 51.9985C133.805 50.9987 133.249 50.4588 132.436 50.4588C131.534 50.4588 130.79 51.2087 130.235 53.2783Z" fill="#151515"/>
<path d="M144.832 46.0997H153.935L153.439 48.4793C154.897 46.6896 156.672 45.7197 158.725 45.7197C162.701 45.7197 164.536 48.3493 163.693 52.3586L161.273 63.9167H152.17L154.56 52.5786C154.689 51.8887 154.431 51.4188 153.687 51.4188C153.31 51.4188 152.973 51.5787 152.725 51.8587L150.177 63.9167H141.073L144.832 46.0997Z" fill="#151515"/>
<path d="M166.658 60.0065C166.658 59.5366 166.687 59.0667 166.816 58.5368L168.433 50.958H164.456L165.477 46.0988H169.454L170.168 42.6494H179.113L178.399 46.0988H183L181.978 50.958H177.377L176.009 57.4369C175.979 57.5669 175.979 57.6869 175.979 57.8169C175.979 58.5668 176.564 58.8467 177.466 58.8467H180.322L179.232 63.9159H171.933C168.423 63.9159 166.648 62.5361 166.648 59.9965L166.658 60.0065Z" fill="#151515"/>
<path d="M76.8543 87.7825L78.4409 80.2138L87.6929 80.1338L83.181 101.5H73.9487L75.6147 93.5915L76.8543 87.7725V87.7825Z" fill="#151515"/>
<path d="M111.106 97.5905C111.106 97.1206 111.135 96.6507 111.264 96.1208L112.881 88.542H108.904L109.926 83.6828H113.902L114.616 80.2334H123.561L122.847 83.6828H127.448L126.427 88.542H121.825L120.457 95.0209C120.427 95.1509 120.427 95.2709 120.427 95.4009C120.427 96.1507 121.012 96.4307 121.915 96.4307H124.771L123.68 101.5H116.381C112.871 101.5 111.096 100.12 111.096 97.5905H111.106Z" fill="#151515"/>
<path d="M126.07 94.171C126.07 93.5111 126.129 92.8212 126.258 92.1014C127.25 86.4623 131.692 83.1729 137.345 83.1729C143.344 83.1729 146.637 86.0824 146.637 90.5316C146.637 91.4115 146.508 92.4113 146.329 93.4411H134.588C134.499 94.001 134.459 94.501 134.459 94.9409C134.459 96.3207 134.895 96.9106 135.768 96.9106C136.542 96.9106 137.226 96.1607 137.791 94.5909H146.022C144.534 99.5701 140.34 101.98 135.342 101.98C129.56 101.98 126.08 99.0702 126.08 94.151L126.07 94.171ZM135.074 90.8516H138.525C138.614 90.3217 138.644 89.9117 138.644 89.5718C138.644 88.572 138.089 88.032 137.275 88.032C136.373 88.032 135.629 88.7819 135.074 90.8516Z" fill="#151515"/>
<path d="M150.544 79.5742H159.617L154.986 101.501H145.913L150.544 79.5742Z" fill="#151515"/>
<path d="M98.4625 83.1436C92.5622 83.1436 88.2386 86.273 87.2172 92.1021C87.0982 92.8519 86.999 93.5718 86.999 94.2317C86.999 99.2109 90.6681 102 96.5982 102C102.528 102 106.782 98.9009 107.843 93.0719C107.972 92.322 108.032 91.6321 108.032 90.9722C108.032 85.9631 104.432 83.1436 98.4625 83.1436ZM97.5204 94.3717C96.5387 94.3717 95.7354 93.5618 95.7354 92.572C95.7354 91.5821 96.5387 90.7723 97.5204 90.7723C98.5021 90.7723 99.3054 91.5821 99.3054 92.572C99.3054 93.5618 98.5021 94.3717 97.5204 94.3717Z" fill="#151515"/>
<path d="M75.3269 94.9313C77.2876 94.9313 78.877 93.3287 78.877 91.3519C78.877 89.375 77.2876 87.7725 75.3269 87.7725C73.3663 87.7725 71.7769 89.375 71.7769 91.3519C71.7769 93.3287 73.3663 94.9313 75.3269 94.9313Z" fill="#151515"/>
<path d="M53.0945 91.0914C55.0552 91.0914 56.6446 89.4889 56.6446 87.512C56.6446 85.5352 55.0552 83.9326 53.0945 83.9326C51.1339 83.9326 49.5444 85.5352 49.5444 87.512C49.5444 89.4889 51.1339 91.0914 53.0945 91.0914Z" fill="#FF7C17"/>
<path d="M71.5292 80.0938H67.8403C67.2849 82.1334 66.5511 82.8833 65.6586 82.8833C64.8554 82.8833 64.31 82.3534 64.31 81.3635C64.31 81.0236 64.3398 80.6237 64.429 80.0938H60.6905C59.9368 80.0938 59.2824 80.6137 59.0939 81.3535L54.5919 99.3705C54.334 100.42 55.1075 101.43 56.1785 101.44H59.3716L59.5402 101.45C60.0955 99.4205 60.8392 98.6807 61.7317 98.6807C62.5449 98.6807 63.1002 99.2106 63.1002 100.22C63.1002 100.55 63.0704 100.95 62.9812 101.45H67.3643C68.1278 101.45 68.7922 100.92 68.9707 100.16L73.1158 82.1334C73.3538 81.0936 72.5704 80.0938 71.5093 80.0938H71.5292ZM66.4222 88.0924H62.6837L62.9217 86.9326H66.6701L66.4222 88.0924Z" fill="#151515"/>
</g>
<path d="M136.5 179C141.194 179 145 175.194 145 170.5C145 165.806 141.194 162 136.5 162C131.806 162 128 165.806 128 170.5C128 175.194 131.806 179 136.5 179Z" fill="#FF7C17"/>
<path d="M84 169C88.9706 169 93 165.418 93 161C93 156.582 88.9706 153 84 153C79.0294 153 75 156.582 75 161C75 165.418 79.0294 169 84 169Z" fill="#FF7C17"/>
<path d="M127.116 144.004H118.403C117.097 148.879 115.358 150.655 113.254 150.655C111.369 150.655 110.063 149.4 110.063 147.032C110.063 146.223 110.132 145.26 110.351 144.004H101.525C99.7407 144.004 98.1878 145.239 97.75 147.003L87.1195 190.038C86.5032 192.538 88.348 194.963 90.8779 194.971L98.423 195H98.8163C100.134 190.162 101.881 188.386 103.99 188.386C105.899 188.386 107.221 189.658 107.221 192.054C107.221 192.848 107.148 193.794 106.945 195H117.312C119.124 195 120.693 193.728 121.103 191.931L130.898 148.862C131.462 146.375 129.613 144 127.107 144L127.116 144.004ZM115.062 163.09H106.236L106.799 160.322H115.65L115.062 163.09Z" fill="#FF7C17"/>
<path d="M39.9834 232.636H31.4229V231.071H39.9834V232.636ZM30.9834 237.584C32.7939 237.572 34.502 237.534 36.1074 237.47C37.7188 237.405 39.2158 237.291 40.5986 237.127L40.748 238.568C39.3242 238.803 37.8154 238.961 36.2217 239.043C34.6279 239.119 32.9521 239.157 31.1943 239.157L30.9834 237.584ZM34.71 237.9H32.8115V232.24H34.71V237.9ZM38.5771 237.9H36.6875V232.24H38.5771V237.9ZM43.5605 241.381H41.6094V229.691H43.5605V241.381ZM45.7842 235.914H42.9805V234.279H45.7842V235.914ZM44.1846 245.266H33.3828V243.666H44.1846V245.266ZM35.3252 244.114H33.3828V240.273H35.3252V244.114ZM60.2949 245.547H58.4141V229.674H60.2949V245.547ZM59.0557 237.417H56.2344V235.826H59.0557V237.417ZM56.7266 244.8H54.8809V229.946H56.7266V244.8ZM53.3164 241.478H47.0762V231.396H53.3164V241.478ZM48.9043 239.931H51.4795V232.935H48.9043V239.931ZM80.1318 245.547H78.2861V229.674H80.1318V245.547ZM75.3418 237.487H71.6768V235.932H75.3418V237.487ZM76.7656 244.817H74.9199V230.061H76.7656V244.817ZM73.3467 231.616C73.3467 233.14 73.1533 234.54 72.7666 235.817C72.3799 237.095 71.75 238.272 70.877 239.351C70.0039 240.423 68.8525 241.375 67.4229 242.207L66.3066 240.818C67.5254 240.098 68.5127 239.298 69.2686 238.419C70.0244 237.54 70.5752 236.573 70.9209 235.519C71.2725 234.458 71.4482 233.286 71.4482 232.003V231.616H73.3467ZM72.1074 233.198H67.1152V231.616H72.1074V233.198ZM87.6289 233.488C87.6289 234.812 87.4473 236.063 87.084 237.241C86.7266 238.413 86.2021 239.444 85.5107 240.335C84.8193 241.226 83.9873 241.902 83.0146 242.365L81.8193 240.73C82.6807 240.35 83.4277 239.79 84.0605 239.052C84.6934 238.308 85.1768 237.455 85.5107 236.494C85.8506 235.527 86.0205 234.525 86.0205 233.488V230.948H87.6289V233.488ZM87.9893 233.488C87.9893 234.473 88.1533 235.425 88.4814 236.345C88.8096 237.265 89.2842 238.085 89.9053 238.806C90.5322 239.526 91.2646 240.068 92.1025 240.432L90.9424 241.996C90.0049 241.557 89.1904 240.909 88.499 240.054C87.8076 239.192 87.2803 238.199 86.917 237.074C86.5537 235.949 86.3721 234.754 86.3721 233.488V230.948H87.9893V233.488ZM95.2051 245.591H93.2275V229.674H95.2051V245.591ZM105.734 239.553H103.783V237.241H105.734V239.553ZM112.019 237.672H97.5518V236.125H112.019V237.672ZM110.164 235.114H99.3623V230.166H110.164V235.114ZM101.287 233.585H108.222V231.695H101.287V233.585ZM110.226 242.77H101.19V244.387H99.2568V241.363H108.292V240.353H99.248V238.867H110.226V242.77ZM110.656 245.424H99.2568V243.93H110.656V245.424ZM131.891 238.639H117.397V237.03H131.891V238.639ZM130.221 235.791H119.182V234.218H130.221V235.791ZM130.124 231.766H121.106V235.009H119.182V230.175H130.124V231.766ZM124.613 239.737C125.756 239.737 126.74 239.849 127.566 240.071C128.393 240.294 129.022 240.622 129.456 241.056C129.896 241.489 130.115 242.014 130.115 242.629C130.115 243.244 129.896 243.769 129.456 244.202C129.022 244.642 128.393 244.973 127.566 245.195C126.746 245.424 125.762 245.538 124.613 245.538C123.465 245.538 122.475 245.424 121.643 245.195C120.816 244.973 120.181 244.642 119.735 244.202C119.296 243.769 119.076 243.244 119.076 242.629C119.076 242.014 119.296 241.489 119.735 241.056C120.181 240.622 120.816 240.294 121.643 240.071C122.469 239.849 123.459 239.737 124.613 239.737ZM124.613 241.231C123.846 241.231 123.198 241.287 122.671 241.398C122.144 241.504 121.745 241.662 121.476 241.873C121.206 242.078 121.071 242.33 121.071 242.629C121.071 242.939 121.206 243.2 121.476 243.411C121.745 243.616 122.141 243.774 122.662 243.886C123.189 243.991 123.84 244.044 124.613 244.044C125.381 244.044 126.028 243.991 126.556 243.886C127.083 243.774 127.481 243.616 127.751 243.411C128.021 243.2 128.155 242.939 128.155 242.629C128.155 242.33 128.021 242.078 127.751 241.873C127.481 241.662 127.08 241.504 126.547 241.398C126.02 241.287 125.375 241.231 124.613 241.231ZM147.456 239.843H132.937V238.27H147.456V239.843ZM145.663 234.165H136.716V236.037H134.773V232.741H143.694V231.555H134.729V230.017H145.663V234.165ZM145.971 236.951H134.773V235.431H145.971V236.951ZM141.154 239.113H139.221V236.16H141.154V239.113ZM145.751 245.459H143.773V242.4H134.554V240.845H145.751V245.459ZM158.601 238.586H156.641V236.169H158.601V238.586ZM157.59 230.359C158.357 230.359 159.04 230.494 159.638 230.764C160.241 231.027 160.713 231.402 161.053 231.889C161.398 232.369 161.571 232.926 161.571 233.559C161.571 234.174 161.398 234.725 161.053 235.211C160.713 235.691 160.241 236.066 159.638 236.336C159.04 236.605 158.357 236.74 157.59 236.74C156.822 236.74 156.134 236.605 155.524 236.336C154.921 236.066 154.452 235.691 154.118 235.211C153.784 234.725 153.617 234.174 153.617 233.559C153.617 232.932 153.784 232.375 154.118 231.889C154.452 231.402 154.921 231.027 155.524 230.764C156.134 230.494 156.822 230.359 157.59 230.359ZM157.59 231.845C157.174 231.845 156.802 231.915 156.474 232.056C156.146 232.196 155.891 232.396 155.709 232.653C155.533 232.911 155.445 233.213 155.445 233.559C155.445 233.898 155.533 234.194 155.709 234.446C155.891 234.698 156.146 234.895 156.474 235.035C156.802 235.176 157.174 235.249 157.59 235.255C158.012 235.249 158.384 235.176 158.706 235.035C159.034 234.895 159.286 234.698 159.462 234.446C159.644 234.194 159.734 233.898 159.734 233.559C159.734 233.207 159.644 232.902 159.462 232.645C159.286 232.381 159.034 232.182 158.706 232.047C158.384 231.912 158.012 231.845 157.59 231.845ZM165.386 241.812H163.426V229.691H165.386V241.812ZM167.53 236.45H164.665V234.815H167.53V236.45ZM165.939 245.239H154.927V243.648H165.939V245.239ZM156.896 244.36H154.927V240.757H156.896V244.36ZM152.756 238.076C154.514 238.082 156.219 238.05 157.871 237.979C159.523 237.909 161.064 237.769 162.494 237.558L162.635 238.99C161.176 239.254 159.649 239.43 158.056 239.518C156.468 239.6 154.774 239.641 152.976 239.641L152.756 238.076ZM174.096 242.761H172.188V238.938H174.096V242.761ZM179.193 242.743H177.277V238.92H179.193V242.743ZM182.876 243.719H168.356V242.11H182.876V243.719ZM181.145 235.861H172.021V238.744H170.07V234.297H179.22V232.337H170.044V230.755H181.145V235.861ZM181.522 239.482H170.07V237.892H181.522V239.482ZM186.972 240.265H184.985L184.792 231.273H187.174L186.972 240.265ZM185.987 244.141C185.741 244.141 185.513 244.079 185.302 243.956C185.091 243.827 184.924 243.66 184.801 243.455C184.684 243.244 184.625 243.016 184.625 242.77C184.625 242.529 184.684 242.307 184.801 242.102C184.924 241.891 185.091 241.727 185.302 241.609C185.513 241.486 185.741 241.425 185.987 241.425C186.228 241.425 186.45 241.486 186.655 241.609C186.866 241.727 187.033 241.891 187.156 242.102C187.279 242.307 187.341 242.529 187.341 242.77C187.341 243.016 187.279 243.244 187.156 243.455C187.033 243.66 186.866 243.827 186.655 243.956C186.45 244.079 186.228 244.141 185.987 244.141Z" fill="#151515"/>
<path d="M4.5625 267.758C4.5625 268.555 4.42806 269.3 4.15918 269.993C3.8903 270.681 3.50065 271.281 2.99023 271.791C2.47982 272.297 1.8737 272.68 1.17188 272.939L0.474609 271.907C1.09896 271.684 1.63672 271.363 2.08789 270.943C2.54362 270.52 2.89225 270.036 3.13379 269.494C3.37533 268.952 3.49609 268.373 3.49609 267.758V266.548H4.5625V267.758ZM4.78125 267.874C4.78125 268.407 4.90202 268.92 5.14355 269.412C5.38509 269.904 5.72917 270.34 6.17578 270.718C6.6224 271.091 7.14648 271.379 7.74805 271.579L7.04395 272.591C6.36947 272.354 5.78385 272.001 5.28711 271.531C4.79036 271.062 4.40527 270.515 4.13184 269.891C3.86296 269.262 3.72852 268.59 3.72852 267.874V266.548H4.78125V267.874ZM10.1885 273.295H8.89648V265.905H10.1885V273.295ZM11.9727 270.075H9.82617V268.988H11.9727V270.075ZM6.23047 273.589C7.06901 273.589 7.79362 273.68 8.4043 273.862C9.01497 274.04 9.4821 274.3 9.80566 274.642C10.1338 274.979 10.2979 275.384 10.2979 275.858C10.2979 276.341 10.1338 276.752 9.80566 277.089C9.4821 277.431 9.01497 277.69 8.4043 277.868C7.79362 278.05 7.06901 278.142 6.23047 278.142C5.38281 278.142 4.65137 278.05 4.03613 277.868C3.4209 277.69 2.94694 277.431 2.61426 277.089C2.28613 276.747 2.12207 276.337 2.12207 275.858C2.12207 275.384 2.28613 274.979 2.61426 274.642C2.94694 274.3 3.4209 274.04 4.03613 273.862C4.65592 273.68 5.38737 273.589 6.23047 273.589ZM6.23047 274.621C5.64714 274.621 5.14355 274.671 4.71973 274.771C4.30046 274.867 3.97917 275.008 3.75586 275.195C3.53255 275.382 3.42318 275.603 3.42773 275.858C3.42318 276.123 3.53255 276.351 3.75586 276.542C3.97917 276.729 4.29818 276.872 4.71289 276.973C5.13216 277.068 5.63802 277.116 6.23047 277.116C6.81836 277.116 7.32194 277.068 7.74121 276.973C8.16504 276.872 8.48633 276.729 8.70508 276.542C8.92383 276.351 9.0332 276.123 9.0332 275.858C9.0332 275.603 8.92155 275.382 8.69824 275.195C8.47949 275.004 8.1582 274.86 7.73438 274.765C7.3151 274.669 6.8138 274.621 6.23047 274.621ZM18.877 274.525H17.5986V272.475H18.877V274.525ZM23.833 272.823H12.6631V271.771H23.833V272.823ZM22.7871 267.341H13.6885V266.288H22.7871V267.341ZM22.7324 270.738H13.7432V269.679H22.7324V270.738ZM16.7646 270.403H15.4727V266.726H16.7646V270.403ZM21.0029 270.403H19.7041V266.726H21.0029V270.403ZM22.4727 278.005H14.0029V274.136H22.4727V278.005ZM15.2881 276.952H21.2012V275.147H15.2881V276.952ZM34.9141 278.189H33.6084V265.905H34.9141V278.189ZM28.3516 266.828C28.9622 266.828 29.5068 267.004 29.9854 267.354C30.4639 267.705 30.8376 268.207 31.1064 268.858C31.3753 269.51 31.5098 270.267 31.5098 271.128C31.5098 271.994 31.3753 272.753 31.1064 273.404C30.8376 274.051 30.4639 274.55 29.9854 274.901C29.5068 275.252 28.9622 275.428 28.3516 275.428C27.7409 275.428 27.194 275.252 26.7109 274.901C26.2324 274.55 25.8587 274.051 25.5898 273.404C25.321 272.753 25.1865 271.994 25.1865 271.128C25.1865 270.267 25.321 269.51 25.5898 268.858C25.8587 268.207 26.2324 267.705 26.7109 267.354C27.194 267.004 27.7409 266.828 28.3516 266.828ZM28.3516 267.99C27.9779 267.99 27.6452 268.118 27.3535 268.373C27.0618 268.628 26.8363 268.993 26.6768 269.467C26.5173 269.941 26.4398 270.494 26.4443 271.128C26.4398 271.766 26.5173 272.322 26.6768 272.796C26.8363 273.265 27.0618 273.628 27.3535 273.883C27.6452 274.133 27.9779 274.259 28.3516 274.259C28.7253 274.259 29.0557 274.133 29.3428 273.883C29.6344 273.628 29.86 273.265 30.0195 272.796C30.179 272.322 30.2588 271.766 30.2588 271.128C30.2588 270.494 30.179 269.941 30.0195 269.467C29.86 268.993 29.6344 268.628 29.3428 268.373C29.0557 268.118 28.7253 267.99 28.3516 267.99ZM47.2324 268.072H40.6221V267.033H47.2324V268.072ZM40.2871 272.105C41.7044 272.096 43.0352 272.069 44.2793 272.023C45.528 271.973 46.6901 271.882 47.7656 271.75L47.8613 272.714C46.7493 272.892 45.5622 273.012 44.2998 273.076C43.042 273.135 41.7523 273.165 40.4307 273.165L40.2871 272.105ZM43.0488 272.324H41.7842V267.806H43.0488V272.324ZM46.0635 272.324H44.8057V267.806H46.0635V272.324ZM49.9053 274.936H48.6133V265.919H49.9053V274.936ZM51.6895 270.643H49.5088V269.549H51.6895V270.643ZM50.4248 277.916H42.1465V276.843H50.4248V277.916ZM43.4316 277.144H42.1465V274.081H43.4316V277.144ZM62.9209 278.155H61.6699V265.905H62.9209V278.155ZM62.1211 271.771H59.8311V270.711H62.1211V271.771ZM60.166 277.554H58.9355V266.138H60.166V277.554ZM57.5479 274.936H52.7969V267.286H57.5479V274.936ZM54.0137 273.903H56.3311V268.318H54.0137V273.903ZM71.7803 272.153H65.4365V271.094H71.7803V272.153ZM69.1963 274.703H67.9043V271.935H69.1963V274.703ZM71.7256 268.093H66.7148V271.463H65.4365V267.054H71.7256V268.093ZM74.6104 278.189H73.3184V265.905H74.6104V278.189ZM64.541 274.505C66.0449 274.509 67.4622 274.491 68.793 274.45C70.1237 274.405 71.3747 274.316 72.5459 274.184L72.6416 275.147C71.7985 275.271 70.9235 275.364 70.0166 275.428C69.1097 275.487 68.2324 275.528 67.3848 275.551C66.5417 275.574 65.6507 275.585 64.7119 275.585L64.541 274.505ZM85.8691 269.063H82.5195V267.99H85.8691V269.063ZM85.9102 271.682H82.5195V270.629H85.9102V271.682ZM82.8271 272.755H77.1328V266.958H82.8271V272.755ZM78.4248 271.729H81.5488V268.011H78.4248V271.729ZM86.792 274.854H85.4932V265.919H86.792V274.854ZM87.0654 277.916H78.7871V276.843H87.0654V277.916ZM80.0996 277.349H78.7871V274.04H80.0996V277.349ZM101.722 272.105H100.43V265.905H101.722V272.105ZM103.506 269.549H101.161V268.469H103.506V269.549ZM101.722 275.763H95.1045V277.506H93.8262V274.799H100.43V273.678H93.8057V272.659H101.722V275.763ZM102.146 278.005H93.8262V276.973H102.146V278.005ZM95.501 266.329C96.1162 266.329 96.6676 266.445 97.1553 266.678C97.6475 266.91 98.0303 267.234 98.3037 267.648C98.5817 268.063 98.7207 268.535 98.7207 269.063C98.7207 269.592 98.5817 270.064 98.3037 270.479C98.0303 270.893 97.6475 271.219 97.1553 271.456C96.6676 271.693 96.1162 271.812 95.501 271.812C94.8903 271.812 94.3389 271.693 93.8467 271.456C93.359 271.219 92.9762 270.893 92.6982 270.479C92.4202 270.064 92.2812 269.592 92.2812 269.063C92.2812 268.535 92.4202 268.063 92.6982 267.648C92.9762 267.234 93.359 266.91 93.8467 266.678C94.3389 266.445 94.8903 266.329 95.501 266.329ZM95.501 267.409C95.1273 267.405 94.7923 267.473 94.4961 267.614C94.1999 267.751 93.9674 267.947 93.7988 268.202C93.6302 268.453 93.5459 268.74 93.5459 269.063C93.5459 269.396 93.6302 269.69 93.7988 269.945C93.9674 270.201 94.1999 270.401 94.4961 270.547C94.7923 270.693 95.1273 270.766 95.501 270.766C95.8747 270.766 96.2096 270.693 96.5059 270.547C96.8066 270.401 97.0391 270.201 97.2031 269.945C97.3717 269.69 97.4561 269.396 97.4561 269.063C97.4561 268.74 97.3717 268.453 97.2031 268.202C97.0391 267.947 96.8066 267.751 96.5059 267.614C96.2051 267.473 95.8701 267.405 95.501 267.409ZM114.354 273.186H113.062V265.919H114.354V273.186ZM105.864 271.572C107.095 271.581 108.143 271.561 109.009 271.511C109.879 271.456 110.775 271.354 111.695 271.203L111.846 272.27C110.898 272.42 109.975 272.52 109.077 272.57C108.179 272.62 107.108 272.646 105.864 272.646H104.846V271.572H105.864ZM110.444 270.089H106.11V272.235H104.846V269.084H109.159V267.683H104.818V266.65H110.444V270.089ZM114.354 278.005H106.309V273.801H114.354V278.005ZM107.587 276.952H113.083V274.847H107.587V276.952ZM121.881 266.65C122.733 266.65 123.503 266.794 124.191 267.081C124.88 267.364 125.42 267.765 125.812 268.284C126.203 268.799 126.399 269.392 126.399 270.062C126.399 270.741 126.203 271.34 125.812 271.859C125.42 272.379 124.88 272.78 124.191 273.062C123.503 273.345 122.733 273.484 121.881 273.479C121.024 273.484 120.254 273.345 119.57 273.062C118.887 272.78 118.347 272.379 117.95 271.859C117.554 271.34 117.355 270.741 117.355 270.062C117.355 269.392 117.554 268.799 117.95 268.284C118.347 267.765 118.887 267.364 119.57 267.081C120.254 266.794 121.024 266.65 121.881 266.65ZM121.881 267.703C121.257 267.703 120.696 267.801 120.199 267.997C119.702 268.188 119.311 268.464 119.023 268.824C118.741 269.184 118.602 269.597 118.606 270.062C118.602 270.531 118.741 270.946 119.023 271.306C119.311 271.661 119.7 271.937 120.192 272.133C120.689 272.324 121.252 272.422 121.881 272.427C122.501 272.422 123.059 272.324 123.556 272.133C124.052 271.937 124.44 271.661 124.718 271.306C124.996 270.946 125.135 270.531 125.135 270.062C125.135 269.597 124.993 269.184 124.711 268.824C124.428 268.464 124.039 268.188 123.542 267.997C123.05 267.801 122.496 267.703 121.881 267.703ZM127.507 276.576H116.296V275.51H127.507V276.576ZM139.606 276.692H128.396V275.619H139.606V276.692ZM134.609 276.077H133.338V273.09H134.609V276.077ZM138.232 270.602H131.055V272.953H129.763V269.562H136.954V267.84H129.742V266.78H138.232V270.602ZM138.52 273.459H129.763V272.393H138.52V273.459ZM153.538 272.105H152.246V265.905H153.538V272.105ZM155.322 269.549H152.978V268.469H155.322V269.549ZM153.538 275.763H146.921V277.506H145.643V274.799H152.246V273.678H145.622V272.659H153.538V275.763ZM153.962 278.005H145.643V276.973H153.962V278.005ZM147.317 266.329C147.933 266.329 148.484 266.445 148.972 266.678C149.464 266.91 149.847 267.234 150.12 267.648C150.398 268.063 150.537 268.535 150.537 269.063C150.537 269.592 150.398 270.064 150.12 270.479C149.847 270.893 149.464 271.219 148.972 271.456C148.484 271.693 147.933 271.812 147.317 271.812C146.707 271.812 146.155 271.693 145.663 271.456C145.175 271.219 144.793 270.893 144.515 270.479C144.237 270.064 144.098 269.592 144.098 269.063C144.098 268.535 144.237 268.063 144.515 267.648C144.793 267.234 145.175 266.91 145.663 266.678C146.155 266.445 146.707 266.329 147.317 266.329ZM147.317 267.409C146.944 267.405 146.609 267.473 146.312 267.614C146.016 267.751 145.784 267.947 145.615 268.202C145.447 268.453 145.362 268.74 145.362 269.063C145.362 269.396 145.447 269.69 145.615 269.945C145.784 270.201 146.016 270.401 146.312 270.547C146.609 270.693 146.944 270.766 147.317 270.766C147.691 270.766 148.026 270.693 148.322 270.547C148.623 270.401 148.855 270.201 149.02 269.945C149.188 269.69 149.272 269.396 149.272 269.063C149.272 268.74 149.188 268.453 149.02 268.202C148.855 267.947 148.623 267.751 148.322 267.614C148.021 267.473 147.687 267.405 147.317 267.409ZM166.212 278.189H164.927V265.905H166.212V278.189ZM165.228 269.713H162.609V268.64H165.228V269.713ZM157.4 274.272C158.412 274.277 159.326 274.257 160.142 274.211C160.962 274.161 161.816 274.067 162.705 273.931L162.814 275.004C161.912 275.145 161.051 275.241 160.23 275.291C159.41 275.337 158.467 275.359 157.4 275.359H156.471V274.272H157.4ZM161.857 271.463H157.763V274.539H156.471V270.431H160.586V268.045H156.43V266.992H161.857V271.463ZM165.159 273.056H162.534V271.976H165.159V273.056ZM178.038 272.789H169.507V271.729H178.038V272.789ZM179.323 276.549H168.112V275.469H179.323V276.549ZM177.922 268.072H170.792V272.188H169.507V267.013H177.922V268.072ZM181.846 270.916C183.176 270.916 184.266 270.893 185.113 270.848C185.961 270.802 186.827 270.711 187.711 270.574L187.827 271.565C186.925 271.711 186.034 271.809 185.154 271.859C184.279 271.91 183.176 271.935 181.846 271.935H180.827V270.916H181.846ZM186.494 269.604H182.119V271.401H180.827V268.667H185.216V267.498H180.793V266.5H186.494V269.604ZM190.37 275.852H183.65V277.472H182.352V274.895H189.044V273.855H182.324V272.844H190.37V275.852ZM190.78 278.039H182.352V277.014H190.78V278.039ZM190.37 272.345H189.078V265.905H190.37V272.345ZM202.839 278.155H201.608V265.905H202.839V278.155ZM199.346 271.88H196.358V270.834H199.346V271.88ZM200.255 277.567H199.024V266.22H200.255V277.567ZM197.623 267.437C197.618 268.571 197.461 269.629 197.151 270.608C196.846 271.588 196.352 272.497 195.668 273.336C194.989 274.17 194.105 274.906 193.016 275.544L192.271 274.614C193.214 274.054 193.989 273.42 194.595 272.714C195.205 272.007 195.652 271.237 195.935 270.403C196.222 269.569 196.368 268.662 196.372 267.683V267.437H197.623ZM196.83 268.496H192.845V267.437H196.83V268.496ZM208.376 275.79H207.098V272.201H208.376V275.79ZM212.942 275.79H211.637V272.201H212.942V275.79ZM215.622 276.631H204.411V275.558H215.622V276.631ZM209.996 266.616C210.867 266.621 211.644 266.755 212.327 267.02C213.015 267.284 213.551 267.66 213.934 268.147C214.321 268.631 214.515 269.187 214.515 269.815C214.515 270.453 214.321 271.012 213.934 271.49C213.551 271.969 213.015 272.342 212.327 272.611C211.644 272.876 210.867 273.008 209.996 273.008C209.121 273.008 208.342 272.876 207.658 272.611C206.975 272.342 206.439 271.969 206.052 271.49C205.664 271.012 205.471 270.453 205.471 269.815C205.471 269.187 205.664 268.631 206.052 268.147C206.439 267.66 206.975 267.284 207.658 267.02C208.342 266.755 209.121 266.621 209.996 266.616ZM209.996 267.669C209.354 267.664 208.786 267.751 208.294 267.929C207.802 268.102 207.419 268.353 207.146 268.681C206.877 269.004 206.742 269.382 206.742 269.815C206.742 270.248 206.877 270.629 207.146 270.957C207.419 271.285 207.802 271.54 208.294 271.723C208.791 271.9 209.358 271.992 209.996 271.996C210.63 271.992 211.192 271.9 211.685 271.723C212.177 271.54 212.56 271.285 212.833 270.957C213.111 270.629 213.25 270.248 213.25 269.815C213.25 269.382 213.111 269.004 212.833 268.681C212.56 268.353 212.177 268.102 211.685 267.929C211.192 267.751 210.63 267.664 209.996 267.669ZM218.644 274.156H217.297L217.167 267.102H218.767L218.644 274.156ZM217.967 277.096C217.794 277.096 217.632 277.052 217.481 276.966C217.336 276.875 217.217 276.756 217.126 276.61C217.039 276.46 216.998 276.296 217.003 276.118C216.998 275.945 217.039 275.785 217.126 275.64C217.217 275.489 217.336 275.373 217.481 275.291C217.632 275.204 217.794 275.161 217.967 275.161C218.14 275.161 218.299 275.204 218.445 275.291C218.596 275.373 218.714 275.489 218.801 275.64C218.887 275.79 218.933 275.95 218.938 276.118C218.933 276.296 218.887 276.46 218.801 276.61C218.714 276.756 218.596 276.875 218.445 276.966C218.299 277.052 218.14 277.096 217.967 277.096Z" fill="#151515"/>
<defs>
<clipPath id="clip0_2436_16104">
<rect width="146" height="60" fill="white" transform="translate(37 42)"/>
</clipPath>
</defs>
</svg>
