<svg width="32" height="32" viewBox="0 0 32 32" fill="none" xmlns="http://www.w3.org/2000/svg">
<path d="M30 12.751C30 21.501 17.0262 28.5835 16.4737 28.876C16.3281 28.9543 16.1654 28.9953 16 28.9953C15.8346 28.9953 15.6719 28.9543 15.5262 28.876C14.9738 28.5835 2 21.501 2 12.751C2.00232 10.6963 2.81958 8.72636 4.27248 7.27346C5.72539 5.82055 7.69528 5.00329 9.75 5.00098C12.3313 5.00098 14.5912 6.11098 16 7.98723C17.4088 6.11098 19.6688 5.00098 22.25 5.00098C24.3047 5.00329 26.2746 5.82055 27.7275 7.27346C29.1804 8.72636 29.9977 10.6963 30 12.751Z" fill="#FF7C17"/>
</svg>
