<svg width="24" height="24" viewBox="0 0 24 24" fill="none" xmlns="http://www.w3.org/2000/svg">
    <path d="M16.9602 3.9375C14.9557 3.9375 13.2127 4.84408 12.1875 6.36335C11.1623 4.84408 9.41932 3.9375 7.41477 3.9375C5.89635 3.93927 4.44062 4.54501 3.36693 5.62182C2.29324 6.69863 1.68927 8.15859 1.6875 9.68143C1.6875 12.4768 3.42477 15.3861 6.85159 18.327C8.42187 19.6689 10.1181 20.8552 11.9164 21.8691C11.9998 21.914 12.0929 21.9375 12.1875 21.9375C12.2821 21.9375 12.3752 21.914 12.4586 21.8691C14.2569 20.8552 15.9531 19.6689 17.5234 18.327C20.9502 15.3861 22.6875 12.4768 22.6875 9.68143C22.6857 8.15859 22.0818 6.69863 21.0081 5.62182C19.9344 4.54501 18.4787 3.93927 16.9602 3.9375ZM12.1875 20.7011C10.6211 19.7946 2.83295 15.0156 2.83295 9.68143C2.83422 8.46311 3.31735 7.29505 4.17633 6.43357C5.03532 5.57209 6.19999 5.08755 7.41477 5.08629C9.35059 5.08629 10.9762 6.12306 11.6577 7.79263C11.7009 7.89798 11.7743 7.98809 11.8686 8.0515C11.9629 8.11492 12.0739 8.14877 12.1875 8.14877C12.3011 8.14877 12.4121 8.11492 12.5064 8.0515C12.6007 7.98809 12.6741 7.89798 12.7173 7.79263C13.3988 6.12306 15.0244 5.08629 16.9602 5.08629C18.175 5.08755 19.3397 5.57209 20.1987 6.43357C21.0577 7.29505 21.5408 8.46311 21.542 9.68143C21.542 15.0156 13.7539 19.7946 12.1875 20.7011Z" fill="#FF7C17"/>
</svg>
