<svg xmlns="http://www.w3.org/2000/svg" width="10" height="10" viewBox="0 0 10 10" fill="none">
<g clip-path="url(#clip0_3035_5480)">
<path d="M4.51083 7.55323C4.54528 7.63627 4.55433 7.72766 4.53684 7.81585C4.51934 7.90403 4.47609 7.98505 4.41254 8.04865L2.59449 9.8667C2.55228 9.90896 2.50215 9.94248 2.44697 9.96535C2.3918 9.98823 2.33265 10 2.27292 10C2.21319 10 2.15405 9.98823 2.09887 9.96535C2.04369 9.94248 1.99357 9.90896 1.95135 9.8667L0.133303 8.04865C0.069666 7.98508 0.0263202 7.90406 0.00875313 7.81585C-0.00881397 7.72763 0.000187484 7.63619 0.034618 7.55309C0.0690484 7.47 0.12736 7.39899 0.20217 7.34905C0.27698 7.29911 0.364925 7.27249 0.454871 7.27256H1.81841V0.454871C1.81841 0.334326 1.8663 0.218719 1.95153 0.133481C2.03677 0.0482437 2.15238 0.000357602 2.27292 0.000357602C2.39347 0.000357602 2.50907 0.0482437 2.59431 0.133481C2.67955 0.218719 2.72744 0.334326 2.72744 0.454871V7.27256H4.09097C4.18087 7.27258 4.26874 7.29926 4.34347 7.34922C4.41821 7.39917 4.47645 7.47017 4.51083 7.55323ZM9.8667 1.95135L8.04865 0.133303C8.00643 0.0910437 7.95631 0.0575193 7.90113 0.0346462C7.84595 0.0117732 7.78681 0 7.72708 0C7.66735 0 7.6082 0.0117732 7.55303 0.0346462C7.49785 0.0575193 7.44772 0.0910437 7.40551 0.133303L5.58746 1.95135C5.52382 2.01492 5.48048 2.09594 5.46291 2.18415C5.44534 2.27237 5.45434 2.36381 5.48877 2.44691C5.5232 2.53 5.58152 2.60101 5.65633 2.65095C5.73114 2.70089 5.81908 2.72751 5.90903 2.72744H7.27257V9.54513C7.27257 9.66567 7.32045 9.78128 7.40569 9.86652C7.49093 9.95176 7.60653 9.99964 7.72708 9.99964C7.84762 9.99964 7.96323 9.95176 8.04847 9.86652C8.13371 9.78128 8.18159 9.66567 8.18159 9.54513V2.72744H9.54513C9.63508 2.72751 9.72302 2.70089 9.79783 2.65095C9.87264 2.60101 9.93095 2.53 9.96538 2.44691C9.99981 2.36381 10.0088 2.27237 9.99125 2.18415C9.97368 2.09594 9.93034 2.01492 9.8667 1.95135Z" fill="#B8B8B8"/>
</g>
<defs>
<clipPath id="clip0_3035_5480">
<rect width="10" height="10" fill="white"/>
</clipPath>
</defs>
</svg>