<svg width="16" height="17" viewBox="0 0 16 17" fill="none" xmlns="http://www.w3.org/2000/svg">
<g id="mingcute:right-line" clip-path="url(#clip0_2100_18046)">
<g id="Group">
<path id="Vector" fill-rule="evenodd" clip-rule="evenodd" d="M10.4713 8.02879C10.5963 8.15381 10.6665 8.32334 10.6665 8.50012C10.6665 8.6769 10.5963 8.84644 10.4713 8.97145L6.69999 12.7428C6.6385 12.8065 6.56493 12.8572 6.4836 12.8922C6.40226 12.9271 6.31478 12.9455 6.22626 12.9463C6.13774 12.9471 6.04996 12.9302 5.96803 12.8967C5.88609 12.8631 5.81166 12.8136 5.74906 12.751C5.68647 12.6885 5.63697 12.614 5.60345 12.5321C5.56993 12.4502 5.55306 12.3624 5.55383 12.2739C5.5546 12.1853 5.57299 12.0979 5.60793 12.0165C5.64287 11.9352 5.69365 11.8616 5.75733 11.8001L9.05733 8.50012L5.75733 5.20012C5.63589 5.07439 5.56869 4.90598 5.57021 4.73119C5.57173 4.55639 5.64184 4.38918 5.76545 4.26557C5.88905 4.14197 6.05626 4.07186 6.23106 4.07034C6.40586 4.06882 6.57426 4.13601 6.69999 4.25745L10.4713 8.02879Z" fill="currentColor"/>
</g>
</g>
<defs>
<clipPath id="clip0_2100_18046">
<rect width="16" height="16" fill="white" transform="translate(0 0.5)"/>
</clipPath>
</defs>
</svg>
