<svg xmlns="http://www.w3.org/2000/svg" width="24" height="22" fill="none" viewBox="0 0 24 22">
  <path fill="#151515" d="M7.625 3.917h8.75a2.291 2.291 0 0 1 2.288 2.152l.004.14v2.795a2.293 2.293 0 0 1 1.661 2.049l.005.156v6.25a.625.625 0 0 1-1.244.085l-.006-.085v-1.875H4.917v1.875a.625.625 0 0 1-.54.619l-.085.006a.625.625 0 0 1-.62-.54l-.005-.085v-6.25c0-1.05.705-1.934 1.666-2.206V6.209A2.292 2.292 0 0 1 7.485 3.92l.14-.004Zm10.417 6.25H5.958a1.042 1.042 0 0 0-1.036.935l-.005.107v3.125h14.166v-3.125a1.042 1.042 0 0 0-.935-1.036l-.106-.006Zm-1.667-5h-8.75a1.042 1.042 0 0 0-1.037.935l-.005.107v2.708h1.25a.833.833 0 0 1 .834-.833h1.666a.834.834 0 0 1 .828.735l.006.098h1.666a.833.833 0 0 1 .834-.833h1.666a.834.834 0 0 1 .828.735l.006.098h1.25V6.209a1.042 1.042 0 0 0-.935-1.037l-.107-.005Z"/>
</svg>
