<svg xmlns="http://www.w3.org/2000/svg" width="16" height="16" viewBox="0 0 16 16" fill="none">
<path d="M13.0306 11.969C13.1715 12.1099 13.2506 12.301 13.2506 12.5002C13.2506 12.6995 13.1715 12.8906 13.0306 13.0315C12.8897 13.1724 12.6986 13.2515 12.4993 13.2515C12.3001 13.2515 12.109 13.1724 11.9681 13.0315L7.99997 9.06212L4.0306 13.0302C3.8897 13.1711 3.69861 13.2503 3.49935 13.2503C3.30009 13.2503 3.10899 13.1711 2.9681 13.0302C2.8272 12.8894 2.74805 12.6983 2.74805 12.499C2.74805 12.2997 2.8272 12.1086 2.9681 11.9677L6.93747 7.99962L2.96935 4.03025C2.82845 3.88935 2.7493 3.69825 2.7493 3.499C2.7493 3.29974 2.82845 3.10864 2.96935 2.96775C3.11024 2.82685 3.30134 2.7477 3.5006 2.7477C3.69986 2.7477 3.89095 2.82685 4.03185 2.96775L7.99997 6.93712L11.9693 2.96712C12.1102 2.82622 12.3013 2.74707 12.5006 2.74707C12.6999 2.74707 12.891 2.82622 13.0318 2.96712C13.1727 3.10802 13.2519 3.29911 13.2519 3.49837C13.2519 3.69763 13.1727 3.88873 13.0318 4.02962L9.06247 7.99962L13.0306 11.969Z" fill="currentColor"/>
</svg>