<svg width="16" height="17" viewBox="0 0 16 17" fill="none" xmlns="http://www.w3.org/2000/svg">
<path d="M8.00189 2.5C6.9659 2.49977 5.94751 2.76774 5.04582 3.27782C4.14414 3.78791 3.38989 4.52272 2.85649 5.41075C2.32309 6.29878 2.02871 7.30976 2.002 8.3453C1.97528 9.38084 2.21716 10.4057 2.70407 11.32L2.0492 13.2844C1.99495 13.4471 1.98708 13.6216 2.02646 13.7885C2.06585 13.9553 2.15093 14.1079 2.27217 14.2292C2.39342 14.3504 2.54603 14.4355 2.71291 14.4748C2.87979 14.5142 3.05435 14.5064 3.217 14.4521L5.18162 13.7973C5.98637 14.2253 6.87805 14.4643 7.789 14.4963C8.69994 14.5283 9.60619 14.3523 10.439 13.9818C11.2717 13.6112 12.0091 13.0559 12.5952 12.3578C13.1813 11.6598 13.6006 10.8374 13.8214 9.95311C14.0421 9.06883 14.0585 8.14589 13.8693 7.25433C13.68 6.36277 13.2901 5.52604 12.7292 4.80764C12.1683 4.08925 11.451 3.50807 10.6319 3.10822C9.81283 2.70838 8.91339 2.50037 8.00189 2.5ZM5.46318 9.19231C5.32624 9.19231 5.19238 9.1517 5.07852 9.07563C4.96466 8.99956 4.87591 8.89144 4.82351 8.76493C4.77111 8.63843 4.75739 8.49923 4.78411 8.36494C4.81083 8.23064 4.87677 8.10729 4.9736 8.01046C5.07043 7.91364 5.1938 7.84771 5.3281 7.82099C5.46241 7.79428 5.60163 7.80799 5.72814 7.86039C5.85466 7.91279 5.96279 8.00153 6.03887 8.11537C6.11495 8.22922 6.15555 8.36307 6.15555 8.5C6.15555 8.68361 6.08261 8.8597 5.95276 8.98954C5.82292 9.11937 5.64681 9.19231 5.46318 9.19231ZM8.00189 9.19231C7.86495 9.19231 7.73108 9.1517 7.61722 9.07563C7.50336 8.99956 7.41462 8.89144 7.36222 8.76493C7.30981 8.63843 7.2961 8.49923 7.32281 8.36494C7.34953 8.23064 7.41547 8.10729 7.5123 8.01046C7.60913 7.91364 7.7325 7.84771 7.86681 7.82099C8.00112 7.79428 8.14033 7.80799 8.26685 7.86039C8.39336 7.91279 8.50149 8.00153 8.57757 8.11537C8.65365 8.22922 8.69426 8.36307 8.69426 8.5C8.69426 8.68361 8.62131 8.8597 8.49147 8.98954C8.36162 9.11937 8.18551 9.19231 8.00189 9.19231ZM10.5406 9.19231C10.4037 9.19231 10.2698 9.1517 10.1559 9.07563C10.0421 8.99956 9.95333 8.89144 9.90092 8.76493C9.84852 8.63843 9.8348 8.49923 9.86152 8.36494C9.88824 8.23064 9.95418 8.10729 10.051 8.01046C10.1478 7.91364 10.2712 7.84771 10.4055 7.82099C10.5398 7.79428 10.679 7.80799 10.8056 7.86039C10.9321 7.91279 11.0402 8.00153 11.1163 8.11537C11.1924 8.22922 11.233 8.36307 11.233 8.5C11.233 8.68361 11.16 8.8597 11.0302 8.98954C10.9003 9.11937 10.7242 9.19231 10.5406 9.19231Z" fill="#151515"/>
</svg>
