<svg width="16" height="17" viewBox="0 0 16 17" fill="none" xmlns="http://www.w3.org/2000/svg">
<path d="M8 1.5C6.54182 1.50165 5.14383 2.08165 4.11274 3.11276C3.08165 4.14386 2.50165 5.54186 2.5 7.00006C2.5 11.7064 7.5 15.2608 7.71313 15.4095C7.7972 15.4684 7.89735 15.5 8 15.5C8.10265 15.5 8.2028 15.4684 8.28687 15.4095C8.5 15.2608 13.5 11.7064 13.5 7.00006C13.4983 5.54186 12.9184 4.14386 11.8873 3.11276C10.8562 2.08165 9.45818 1.50165 8 1.5ZM8 5.00004C8.39556 5.00004 8.78224 5.11733 9.11114 5.3371C9.44004 5.55686 9.69638 5.86922 9.84776 6.23468C9.99913 6.60014 10.0387 7.00227 9.96157 7.39024C9.8844 7.77821 9.69392 8.13457 9.41421 8.41428C9.13451 8.69399 8.77814 8.88447 8.39018 8.96165C8.00222 9.03882 7.60009 8.99921 7.23463 8.84783C6.86918 8.69646 6.55682 8.44011 6.33706 8.11121C6.1173 7.7823 6 7.39562 6 7.00006C6 6.46962 6.21071 5.9609 6.58579 5.58583C6.96086 5.21075 7.46957 5.00004 8 5.00004Z" fill="#005AF2"/>
</svg>
