
<svg width="20" height="20" viewBox="0 0 20 20" fill="none" xmlns="http://www.w3.org/2000/svg">
<path d="M10.9375 14.0635C10.9375 14.2489 10.8825 14.4302 10.7795 14.5843C10.6765 14.7385 10.5301 14.8587 10.3588 14.9296C10.1875 15.0006 9.99896 15.0191 9.81711 14.983C9.63525 14.9468 9.4682 14.8575 9.33709 14.7264C9.20598 14.5953 9.11669 14.4282 9.08052 14.2464C9.04434 14.0645 9.06291 13.876 9.13387 13.7047C9.20482 13.5334 9.32499 13.387 9.47916 13.284C9.63333 13.181 9.81458 13.126 10 13.126C10.2486 13.126 10.4871 13.2247 10.6629 13.4006C10.8387 13.5764 10.9375 13.8148 10.9375 14.0635ZM10 5.62598C8.27657 5.62598 6.875 6.8877 6.875 8.43848V8.75098C6.875 8.91674 6.94085 9.07571 7.05806 9.19292C7.17527 9.31013 7.33424 9.37598 7.5 9.37598C7.66576 9.37598 7.82474 9.31013 7.94195 9.19292C8.05916 9.07571 8.125 8.91674 8.125 8.75098V8.43848C8.125 7.5791 8.96641 6.87598 10 6.87598C11.0336 6.87598 11.875 7.5791 11.875 8.43848C11.875 9.29785 11.0336 10.001 10 10.001C9.83424 10.001 9.67527 10.0668 9.55806 10.184C9.44085 10.3012 9.375 10.4602 9.375 10.626V11.251C9.375 11.4167 9.44085 11.5757 9.55806 11.6929C9.67527 11.8101 9.83424 11.876 10 11.876C10.1658 11.876 10.3247 11.8101 10.4419 11.6929C10.5592 11.5757 10.625 11.4167 10.625 11.251V11.1947C12.05 10.933 13.125 9.79629 13.125 8.43848C13.125 6.8877 11.7234 5.62598 10 5.62598ZM18.125 10.001C18.125 11.608 17.6485 13.1788 16.7557 14.515C15.8629 15.8511 14.594 16.8925 13.1093 17.5075C11.6247 18.1225 9.99099 18.2834 8.4149 17.9699C6.8388 17.6564 5.39106 16.8825 4.25476 15.7462C3.11846 14.6099 2.34463 13.1622 2.03112 11.5861C1.71762 10.01 1.87852 8.37632 2.49348 6.89167C3.10844 5.40702 4.14985 4.13807 5.486 3.24529C6.82214 2.3525 8.39303 1.87598 10 1.87598C12.1542 1.87825 14.2195 2.73501 15.7427 4.25825C17.266 5.78149 18.1227 7.84679 18.125 10.001ZM16.875 10.001C16.875 8.64123 16.4718 7.31202 15.7164 6.18143C14.9609 5.05084 13.8872 4.16966 12.631 3.6493C11.3747 3.12895 9.99238 2.9928 8.65876 3.25808C7.32514 3.52335 6.10013 4.17813 5.13864 5.13962C4.17716 6.1011 3.52238 7.32611 3.2571 8.65973C2.99183 9.99335 3.12798 11.3757 3.64833 12.6319C4.16868 13.8882 5.04987 14.9619 6.18046 15.7173C7.31105 16.4728 8.64026 16.876 10 16.876C11.8227 16.8739 13.5702 16.1489 14.8591 14.8601C16.1479 13.5712 16.8729 11.8237 16.875 10.001Z" fill="#FF7C17"/>
</svg>
