<svg xmlns="http://www.w3.org/2000/svg" width="24" height="24" viewBox="0 0 24 24" fill="#151515">
<path d="M20 12.0014C20.0002 13.8414 19.2334 15.6074 17.8656 16.9173C16.4979 18.2271 14.6392 18.9753 12.6919 19H12.5926C10.7015 19.0038 8.88145 18.3199 7.50963 17.0901C7.33822 16.9371 7.23814 16.7261 7.2314 16.5034C7.22466 16.2808 7.31182 16.0647 7.4737 15.9027C7.63558 15.7408 7.85893 15.6462 8.0946 15.6399C8.33027 15.6335 8.55896 15.7159 8.73037 15.8688C9.53499 16.5865 10.5456 17.0643 11.636 17.2424C12.7264 17.4205 13.8482 17.291 14.8611 16.8702C15.8741 16.4493 16.7333 15.7558 17.3314 14.8762C17.9295 13.9966 18.24 12.9699 18.2241 11.9246C18.2081 10.8792 17.8665 9.86142 17.2418 8.99846C16.6171 8.1355 15.7371 7.46561 14.7118 7.07251C13.6864 6.67941 12.5612 6.58054 11.4767 6.78823C10.3922 6.99593 9.39649 7.50099 8.61407 8.24031C8.60444 8.2494 8.59556 8.2578 8.58519 8.2662L7.17704 9.48186H8.44444C8.68019 9.48186 8.90628 9.57034 9.07298 9.72784C9.23968 9.88534 9.33333 10.099 9.33333 10.3217C9.33333 10.5444 9.23968 10.758 9.07298 10.9155C8.90628 11.073 8.68019 11.1615 8.44444 11.1615H4.88889C4.65314 11.1615 4.42705 11.073 4.26035 10.9155C4.09365 10.758 4 10.5444 4 10.3217V6.96236C4 6.73962 4.09365 6.526 4.26035 6.36851C4.42705 6.21101 4.65314 6.12252 4.88889 6.12252C5.12464 6.12252 5.35073 6.21101 5.51743 6.36851C5.68413 6.526 5.77778 6.73962 5.77778 6.96236V8.41247L7.36889 7.03654C8.40659 6.06138 9.72679 5.39851 11.1629 5.1316C12.5989 4.8647 14.0865 5.00573 15.4378 5.53688C16.7892 6.06803 17.9437 6.96551 18.7556 8.11603C19.5676 9.26655 20.0006 10.6185 20 12.0014Z" />
</svg>