<svg xmlns="http://www.w3.org/2000/svg" width="24" height="24" viewBox="0 0 24 24" fill="none">
<path d="M21.7958 20.2044L17.3436 15.7504C18.6785 14.0108 19.3018 11.8286 19.0869 9.64643C18.872 7.46426 17.8352 5.44552 16.1866 3.99972C14.538 2.55393 12.4013 1.78935 10.2097 1.86107C8.01817 1.9328 5.93595 2.83546 4.38546 4.38595C2.83497 5.93644 1.93231 8.01865 1.86058 10.2102C1.78886 12.4018 2.55344 14.5385 3.99924 16.1871C5.44503 17.8356 7.46377 18.8725 9.64594 19.0874C11.8281 19.3023 14.0103 18.679 15.7499 17.3441L20.2058 21.801C20.3105 21.9056 20.4347 21.9886 20.5714 22.0453C20.7081 22.1019 20.8547 22.1311 21.0027 22.1311C21.1507 22.1311 21.2972 22.1019 21.434 22.0453C21.5707 21.9886 21.6949 21.9056 21.7996 21.801C21.9042 21.6963 21.9872 21.5721 22.0439 21.4354C22.1005 21.2986 22.1296 21.1521 22.1296 21.0041C22.1296 20.8561 22.1005 20.7096 22.0439 20.5728C21.9872 20.4361 21.9042 20.3119 21.7996 20.2072L21.7958 20.2044ZM4.12487 10.5004C4.12487 9.2395 4.49876 8.00696 5.19925 6.9586C5.89975 5.91024 6.89539 5.09314 8.06026 4.61063C9.22514 4.12812 10.5069 4.00187 11.7436 4.24785C12.9802 4.49383 14.1161 5.10099 15.0077 5.99255C15.8992 6.88411 16.5064 8.02003 16.7524 9.25666C16.9984 10.4933 16.8721 11.7751 16.3896 12.94C15.9071 14.1048 15.09 15.1005 14.0416 15.801C12.9933 16.5015 11.7607 16.8754 10.4999 16.8754C8.80965 16.8736 7.18915 16.2014 5.99398 15.0062C4.79882 13.8111 4.12661 12.1906 4.12487 10.5004Z" fill="black"/>
</svg>