<svg width="16" height="17" viewBox="0 0 16 17" fill="none" xmlns="http://www.w3.org/2000/svg">
<path d="M12.7502 7.55508L10.7381 9.37752L11.3408 12.0908C11.3727 12.2327 11.3636 12.3811 11.3147 12.5176C11.2657 12.6541 11.1791 12.7726 11.0656 12.8583C10.9521 12.944 10.8168 12.993 10.6766 12.9993C10.5364 13.0056 10.3975 12.9689 10.2773 12.8937L7.9971 11.4583L5.72184 12.8937C5.60164 12.9689 5.46275 13.0056 5.32255 12.9993C5.18234 12.993 5.04702 12.944 4.93353 12.8583C4.82004 12.7726 4.73339 12.6541 4.68444 12.5176C4.63548 12.3811 4.62638 12.2327 4.65827 12.0908L5.2601 9.3803L3.24761 7.55508C3.14117 7.4598 3.0642 7.33403 3.02636 7.19353C2.98851 7.05304 2.99148 6.90407 3.03488 6.76532C3.07829 6.62656 3.1602 6.5042 3.27035 6.41356C3.38049 6.32293 3.51397 6.26807 3.65403 6.25585L6.30672 6.0174L7.34218 3.45413C7.39626 3.31963 7.48746 3.20474 7.60432 3.12393C7.72118 3.04312 7.85846 3 7.99888 3C8.13931 3 8.27659 3.04312 8.39345 3.12393C8.51031 3.20474 8.60151 3.31963 8.65559 3.45413L9.69417 6.0174L12.346 6.25585C12.486 6.26807 12.6195 6.32293 12.7297 6.41356C12.8398 6.5042 12.9217 6.62656 12.9651 6.76532C13.0085 6.90407 13.0115 7.05304 12.9736 7.19353C12.9358 7.33403 12.8588 7.4598 12.7524 7.55508H12.7502Z" fill="#FF7C17"/>
</svg>
