<svg xmlns="http://www.w3.org/2000/svg" width="32" height="32" viewBox="0 0 32 32" fill="none">
  <g opacity="0.5">
    <path d="M16 1C13.0333 1 10.1332 1.87973 7.66645 3.52796C5.19971 5.17618 3.27713 7.51886 2.14181 10.2597C1.0065 13.0006 0.709449 16.0166 1.28823 18.9264C1.86701 21.8361 3.29562 24.5088 5.3934 26.6066C7.49119 28.7044 10.1639 30.133 13.0736 30.7118C15.9834 31.2906 18.9994 30.9935 21.7403 29.8582C24.4811 28.7229 26.8238 26.8003 28.472 24.3335C30.1203 21.8668 31 18.9667 31 16C30.9958 12.023 29.4141 8.21017 26.602 5.39804C23.7898 2.5859 19.977 1.0042 16 1ZM22.5856 19.124C22.4784 19.2313 22.3512 19.3164 22.2111 19.3745C22.071 19.4326 21.9209 19.4624 21.7692 19.4624C21.6176 19.4624 21.4675 19.4326 21.3274 19.3745C21.1873 19.3164 21.06 19.2313 20.9529 19.124L16 14.1697L11.0471 19.124C10.9399 19.2312 10.8126 19.3163 10.6726 19.3743C10.5325 19.4323 10.3824 19.4622 10.2308 19.4622C10.0792 19.4622 9.92904 19.4323 9.78897 19.3743C9.6489 19.3163 9.52163 19.2312 9.41443 19.124C9.30722 19.0168 9.22219 18.8896 9.16417 18.7495C9.10615 18.6094 9.07629 18.4593 9.07629 18.3077C9.07629 18.1561 9.10615 18.006 9.16417 17.8659C9.22219 17.7258 9.30722 17.5985 9.41443 17.4913L15.1837 11.7221C15.2908 11.6148 15.4181 11.5297 15.5581 11.4717C15.6982 11.4136 15.8484 11.3837 16 11.3837C16.1516 11.3837 16.3018 11.4136 16.4419 11.4717C16.5819 11.5297 16.7092 11.6148 16.8163 11.7221L22.5856 17.4913C22.6929 17.5985 22.778 17.7258 22.836 17.8658C22.8941 18.0059 22.924 18.1561 22.924 18.3077C22.924 18.4593 22.8941 18.6095 22.836 18.7495C22.778 18.8896 22.6929 19.0169 22.5856 19.124Z" fill="#404040"/>
  </g>
</svg>