<svg width="24" height="24" viewBox="0 0 24 24" fill="none" xmlns="http://www.w3.org/2000/svg">
<path d="M11.6247 15.2396C12.4283 14.7047 13.0383 13.9253 13.3647 13.0168C13.691 12.1084 13.7164 11.119 13.4369 10.195C13.1575 9.27095 12.5881 8.46141 11.813 7.88603C11.0379 7.31066 10.0982 7 9.13283 7C8.1675 7 7.22779 7.31066 6.45267 7.88603C5.67756 8.46141 5.10818 9.27095 4.82873 10.195C4.54929 11.119 4.57462 12.1084 4.90098 13.0168C5.22734 13.9253 5.83741 14.7047 6.64095 15.2396C5.18742 15.7754 3.94606 16.7667 3.10211 18.0658C3.05776 18.1317 3.02695 18.2058 3.01148 18.2837C2.996 18.3616 2.99618 18.4419 3.01199 18.5197C3.0278 18.5976 3.05892 18.6716 3.10356 18.7373C3.1482 18.803 3.20546 18.8592 3.27201 18.9026C3.33856 18.946 3.41308 18.9758 3.49123 18.9901C3.56937 19.0045 3.6496 19.0032 3.72723 18.9862C3.80486 18.9693 3.87836 18.9371 3.94344 18.8916C4.00853 18.846 4.06391 18.7879 4.10636 18.7208C4.65074 17.8835 5.39566 17.1955 6.27346 16.7192C7.15126 16.2429 8.13414 15.9934 9.13283 15.9934C10.1315 15.9934 11.1144 16.2429 11.9922 16.7192C12.87 17.1955 13.6149 17.8835 14.1593 18.7208C14.2472 18.8515 14.3831 18.9423 14.5375 18.9736C14.6918 19.005 14.8523 18.9743 14.9843 18.8883C15.1162 18.8022 15.209 18.6677 15.2425 18.5138C15.2761 18.3599 15.2477 18.1989 15.1636 18.0658C14.3196 16.7667 13.0782 15.7754 11.6247 15.2396ZM5.83531 11.4984C5.83531 10.8463 6.02871 10.2087 6.39104 9.66644C6.75338 9.12417 7.26838 8.70151 7.87092 8.45193C8.47347 8.20235 9.13649 8.13705 9.77615 8.26428C10.4158 8.39152 11.0034 8.70558 11.4645 9.16675C11.9257 9.62791 12.2398 10.2155 12.367 10.8551C12.4942 11.4948 12.4289 12.1578 12.1793 12.7604C11.9298 13.3629 11.5071 13.8779 10.9648 14.2402C10.4226 14.6026 9.78502 14.796 9.13283 14.796C8.25858 14.795 7.42042 14.4472 6.80223 13.8291C6.18404 13.2109 5.8363 12.3727 5.83531 11.4984ZM21.584 18.8954C21.4508 18.9822 21.2886 19.0126 21.133 18.9799C20.9774 18.9471 20.8412 18.8539 20.7544 18.7208C20.2106 17.883 19.4658 17.1947 18.5878 16.7186C17.7098 16.2425 16.7266 15.9937 15.7279 15.9951C15.5689 15.9951 15.4164 15.9319 15.3039 15.8195C15.1915 15.707 15.1283 15.5545 15.1283 15.3955C15.1283 15.2365 15.1915 15.084 15.3039 14.9716C15.4164 14.8591 15.5689 14.796 15.7279 14.796C16.2135 14.7955 16.693 14.6878 17.1322 14.4805C17.5713 14.2733 17.9593 13.9716 18.2683 13.597C18.5774 13.2224 18.7999 12.7842 18.9199 12.3137C19.04 11.8431 19.0546 11.3519 18.9628 10.875C18.871 10.3982 18.675 9.94748 18.3888 9.55515C18.1027 9.16283 17.7334 8.83855 17.3073 8.60549C16.8813 8.37244 16.409 8.23636 15.9243 8.20697C15.4396 8.17758 14.9544 8.25562 14.5033 8.4355C14.4298 8.46729 14.3506 8.48402 14.2705 8.4847C14.1903 8.48537 14.1109 8.46999 14.0368 8.43944C13.9628 8.40889 13.8956 8.36381 13.8392 8.30686C13.7828 8.2499 13.7385 8.18223 13.7087 8.10784C13.679 8.03344 13.6644 7.95384 13.666 7.87373C13.6675 7.79363 13.6851 7.71464 13.7176 7.64143C13.7502 7.56823 13.7971 7.5023 13.8556 7.44753C13.9141 7.39277 13.9829 7.35028 14.0581 7.32258C15.0905 6.91088 16.2387 6.89607 17.2813 7.28099C18.3239 7.66592 19.187 8.42332 19.7041 9.40708C20.2212 10.3908 20.3557 11.5312 20.0816 12.6083C19.8075 13.6854 19.1442 14.6227 18.2198 15.2396C19.6733 15.7754 20.9146 16.7667 21.7586 18.0658C21.8454 18.1989 21.8758 18.3612 21.8431 18.5167C21.8103 18.6723 21.7171 18.8085 21.584 18.8954Z" fill="#151515"/>
</svg>
