<svg xmlns="http://www.w3.org/2000/svg" width="16" height="17" viewBox="0 0 16 17" fill="none">
<path d="M8 15C9.28558 15 10.5423 14.6188 11.6112 13.9046C12.6801 13.1903 13.5132 12.1752 14.0052 10.9874C14.4972 9.79972 14.6259 8.49279 14.3751 7.23191C14.1243 5.97104 13.5052 4.81285 12.5962 3.90381C11.6871 2.99476 10.529 2.3757 9.26808 2.1249C8.00721 1.87409 6.70027 2.00281 5.51256 2.49478C4.32484 2.98675 3.30967 3.81987 2.59544 4.88879C1.88122 5.95771 1.5 7.21442 1.5 8.5C1.50182 10.2233 2.18722 11.8756 3.40581 13.0942C4.6244 14.3128 6.27665 14.9982 8 15ZM8 3C9.08779 3 10.1512 3.32257 11.0556 3.92692C11.9601 4.53127 12.6651 5.39025 13.0813 6.39524C13.4976 7.40023 13.6065 8.5061 13.3943 9.573C13.1821 10.6399 12.6583 11.6199 11.8891 12.3891C11.1199 13.1583 10.1399 13.6821 9.07299 13.8943C8.0061 14.1065 6.90023 13.9976 5.89524 13.5813C4.89024 13.1651 4.03126 12.4601 3.42691 11.5556C2.82257 10.6512 2.5 9.5878 2.5 8.5C2.50165 7.04182 3.08165 5.64383 4.11274 4.61274C5.14383 3.58165 6.54181 3.00165 8 3ZM8.5 8V11.5C8.5 11.6326 8.44732 11.7598 8.35355 11.8536C8.25978 11.9473 8.13261 12 8 12C7.86739 12 7.74021 11.9473 7.64644 11.8536C7.55268 11.7598 7.5 11.6326 7.5 11.5L7.5 8C7.5 7.86739 7.55268 7.74021 7.64644 7.64645C7.74021 7.55268 7.86739 7.5 8 7.5C8.13261 7.5 8.25978 7.55268 8.35355 7.64645C8.44732 7.74021 8.5 7.86739 8.5 8ZM7.25 5.75C7.25 5.60166 7.29398 5.45666 7.3764 5.33332C7.45881 5.20999 7.57594 5.11386 7.71299 5.05709C7.85003 5.00033 8.00083 4.98547 8.14632 5.01441C8.2918 5.04335 8.42544 5.11478 8.53033 5.21967C8.63522 5.32456 8.70665 5.4582 8.73559 5.60368C8.76452 5.74917 8.74967 5.89997 8.69291 6.03701C8.63614 6.17406 8.54001 6.29119 8.41667 6.3736C8.29334 6.45601 8.14833 6.5 8 6.5C7.80108 6.5 7.61032 6.42098 7.46967 6.28033C7.32902 6.13968 7.25 5.94891 7.25 5.75Z" fill="#151515"/>
</svg>