<svg width="70" height="70" viewBox="0 0 70 70" fill="none" xmlns="http://www.w3.org/2000/svg">
<path d="M61.5 44C66.1944 44 70 40.1944 70 35.5C70 30.8056 66.1944 27 61.5 27C56.8056 27 53 30.8056 53 35.5C53 40.1944 56.8056 44 61.5 44Z" fill="#FF7C17"/>
<path d="M9 34C13.9706 34 18 30.4183 18 26C18 21.5817 13.9706 18 9 18C4.02944 18 0 21.5817 0 26C0 30.4183 4.02944 34 9 34Z" fill="#FF7C17"/>
<path d="M52.1156 9.00413H43.4028C42.0973 13.879 40.358 15.6554 38.2538 15.6554C36.3685 15.6554 35.063 14.3995 35.063 12.0323C35.063 11.2226 35.1319 10.26 35.3509 9.00413H26.5246C24.7406 9.00413 23.1878 10.2394 22.75 12.0034L12.1195 55.0384C11.5032 57.5378 13.348 59.9628 15.8779 59.9711L23.423 60H23.8163C25.1339 55.1623 26.8813 53.3859 28.9896 53.3859C30.8992 53.3859 32.2209 54.6583 32.2209 57.0544C32.2209 57.8476 32.1479 58.7937 31.9452 60H42.3122C44.1245 60 45.6935 58.7276 46.103 56.9305L55.8983 13.8625C56.4618 11.3755 54.613 9 52.1075 9L52.1156 9.00413ZM40.062 28.0904H31.2357L31.7993 25.3225H40.6499L40.062 28.0904Z" fill="#FF7C17"/>
</svg>
