<svg width="116" height="47" viewBox="0 0 116 47" fill="none" xmlns="http://www.w3.org/2000/svg">
<g clip-path="url(#clip0_2100_17339)">
<path d="M3.67941 0H14.5128C18.4128 0 20.6347 1.96584 20.6347 5.05166C20.6347 5.46675 20.5874 5.88968 20.5086 6.35177C19.9177 9.79003 17.3019 11.6541 13.5989 11.6541H8.71399L7.53216 17.1756H0L3.67941 0ZM10.2661 4.41726L9.57278 7.55791H11.4479C12.3146 7.55791 12.9764 7.09582 13.1498 6.10898C13.1734 5.93668 13.197 5.76437 13.197 5.61556C13.197 4.85586 12.7558 4.40943 11.8892 4.40943H10.2582L10.2661 4.41726Z" fill="#151515"/>
<path d="M20.1619 11.4346C20.1619 10.9177 20.2092 10.3772 20.3116 9.81334C21.0995 5.39607 24.6292 2.81934 29.1202 2.81934C33.8868 2.81934 36.5026 5.09846 36.5026 8.58371C36.5026 9.27293 36.4002 10.0561 36.2584 10.8628H26.9298C26.8589 11.3014 26.8274 11.7009 26.8274 12.0376C26.8274 13.1185 27.1741 13.5805 27.8674 13.5805C28.482 13.5805 29.0256 12.9931 29.4747 11.7635H36.0141C34.8323 15.6639 31.4996 17.5514 27.5208 17.5514C22.9274 17.5514 20.1698 15.2723 20.1698 11.4189L20.1619 11.4346ZM27.3159 8.83433H30.0577C30.1286 8.41924 30.1602 8.09812 30.1602 7.83183C30.1602 7.04863 29.7189 6.6257 29.0729 6.6257C28.3559 6.6257 27.765 7.2131 27.3238 8.83433H27.3159Z" fill="#151515"/>
<path d="M38.9136 3.211H46.1463L45.6815 5.44312C46.8869 3.82189 48.4469 2.9917 50.4482 2.9917C50.6451 2.9917 50.8421 2.9917 51.0154 3.0152L49.8573 8.45845C49.2191 8.19216 48.4469 8.04336 47.6591 8.04336C46.6506 8.04336 45.6578 8.26265 44.9724 8.75607L43.1681 17.1677H35.9354L38.9214 3.211H38.9136Z" fill="#151515"/>
<path d="M50.0148 11.5286C50.0148 10.9412 50.062 10.3303 50.2117 9.66459C51.1257 5.22383 54.4821 2.7959 58.9494 2.7959C63.7161 2.7959 66.3555 5.07502 66.3555 8.70908C66.3555 9.03019 66.3555 9.34347 66.3082 9.66459H59.8397C59.8633 9.44529 59.8633 9.22599 59.8633 8.99886C59.8633 7.96504 59.5876 7.20533 58.8785 7.20533C58.0906 7.20533 57.4209 7.91804 56.956 10.1267C56.8063 10.8159 56.7591 11.3563 56.7591 11.7714C56.7591 12.7739 57.1057 13.1733 57.7675 13.1733C58.4294 13.1733 59.0754 12.5389 59.6191 10.7689H66.0876C65.1264 15.476 61.6439 17.5671 57.35 17.5671C53.056 17.5671 50.0227 15.4603 50.0227 11.5286H50.0148Z" fill="#151515"/>
<path d="M66.9149 11.4346C66.9149 10.9177 66.9622 10.3772 67.0646 9.81334C67.8525 5.39607 71.3822 2.81934 75.8731 2.81934C80.6398 2.81934 83.2556 5.09846 83.2556 8.58371C83.2556 9.27293 83.1532 10.0561 83.0114 10.8628H73.6828C73.6119 11.3014 73.5804 11.7009 73.5804 12.0376C73.5804 13.1185 73.9271 13.5805 74.6204 13.5805C75.235 13.5805 75.7786 12.9931 76.2277 11.7635H82.7671C81.5853 15.6639 78.2526 17.5514 74.2816 17.5514C69.6883 17.5514 66.9228 15.2723 66.9228 11.4189L66.9149 11.4346ZM74.0768 8.83433H76.8186C76.8895 8.41924 76.9132 8.09812 76.9132 7.83183C76.9132 7.04863 76.4719 6.6257 75.8259 6.6257C75.1089 6.6257 74.518 7.2131 74.0768 8.83433Z" fill="#151515"/>
<path d="M85.6744 3.21119H92.9071L92.5132 5.07521C93.6714 3.67328 95.0817 2.91357 96.7126 2.91357C99.872 2.91357 101.33 4.9734 100.66 8.11404L98.7375 17.1679H91.5047L93.4035 8.28634C93.5059 7.74593 93.3011 7.37783 92.7102 7.37783C92.4108 7.37783 92.1429 7.50314 91.9459 7.72244L89.9211 17.1679H82.6883L85.6744 3.21119Z" fill="#151515"/>
<path d="M103.016 14.1057C103.016 13.7376 103.039 13.3695 103.142 12.9544L104.426 7.01769H101.267L102.078 3.21133H105.238L105.805 0.509277H112.912L112.344 3.21133H116L115.188 7.01769H111.533L110.445 12.0928C110.422 12.1947 110.422 12.2886 110.422 12.3905C110.422 12.9779 110.887 13.1972 111.604 13.1972H113.873L113.006 17.168H107.207C104.418 17.168 103.008 16.0872 103.008 14.0978L103.016 14.1057Z" fill="#151515"/>
<path d="M31.665 35.8631L32.9256 29.9342L40.2766 29.8716L36.6917 46.6086H29.3565L30.6802 40.4135L31.665 35.8553V35.8631Z" fill="#151515"/>
<path d="M58.8785 43.5461C58.8785 43.178 58.9021 42.8099 59.0046 42.3948L60.2888 36.4581H57.1294L57.9409 32.6518H61.1003L61.6676 29.9497H68.7743L68.207 32.6518H71.8628L71.0513 36.4581H67.3955L66.3082 41.5333C66.2846 41.6351 66.2846 41.7291 66.2846 41.8309C66.2846 42.4183 66.7494 42.6376 67.4664 42.6376H69.7355L68.8689 46.6084H63.07C60.2809 46.6084 58.8706 45.5276 58.8706 43.5461H58.8785Z" fill="#151515"/>
<path d="M70.7676 40.8677C70.7676 40.3508 70.8149 39.8103 70.9173 39.2464C71.7052 34.8292 75.2349 32.2524 79.7259 32.2524C84.4926 32.2524 87.1083 34.5316 87.1083 38.0168C87.1083 38.706 87.0059 39.4892 86.8641 40.2959H77.5356C77.4646 40.7345 77.4331 41.1261 77.4331 41.4707C77.4331 42.5516 77.7798 43.0136 78.4731 43.0136C79.0877 43.0136 79.6313 42.4262 80.0804 41.1966H86.6198C85.438 45.097 82.1053 46.9845 78.1343 46.9845C73.541 46.9845 70.7755 44.7054 70.7755 40.852L70.7676 40.8677ZM77.9216 38.2674H80.6634C80.7344 37.8523 80.758 37.5312 80.758 37.2649C80.758 36.4817 80.3168 36.0588 79.6707 36.0588C78.9537 36.0588 78.3628 36.6462 77.9216 38.2674Z" fill="#151515"/>
<path d="M90.2126 29.4326H97.4217L93.7423 46.6083H86.5331L90.2126 29.4326Z" fill="#151515"/>
<path d="M48.833 32.229C44.1451 32.229 40.7099 34.6804 39.8984 39.2465C39.8038 39.8339 39.725 40.3978 39.725 40.9147C39.725 44.8151 42.6402 47.0002 47.3517 47.0002C52.0633 47.0002 55.4433 44.5723 56.2863 40.0062C56.3888 39.4188 56.436 38.8784 56.436 38.3615C56.436 34.4376 53.576 32.229 48.833 32.229ZM48.0845 41.0244C47.3045 41.0244 46.6663 40.39 46.6663 39.6146C46.6663 38.8392 47.3045 38.2048 48.0845 38.2048C48.8645 38.2048 49.5027 38.8392 49.5027 39.6146C49.5027 40.39 48.8645 41.0244 48.0845 41.0244Z" fill="#151515"/>
<path d="M30.4517 41.4627C32.0095 41.4627 33.2723 40.2074 33.2723 38.6588C33.2723 37.1103 32.0095 35.855 30.4517 35.855C28.8939 35.855 27.631 37.1103 27.631 38.6588C27.631 40.2074 28.8939 41.4627 30.4517 41.4627Z" fill="#151515"/>
<path d="M12.7874 38.4554C14.3451 38.4554 15.608 37.2001 15.608 35.6515C15.608 34.103 14.3451 32.8477 12.7874 32.8477C11.2296 32.8477 9.96674 34.103 9.96674 35.6515C9.96674 37.2001 11.2296 38.4554 12.7874 38.4554Z" fill="#FF7C17"/>
<path d="M27.4341 29.8398H24.5032C24.062 31.4376 23.4789 32.025 22.7698 32.025C22.1317 32.025 21.6983 31.6099 21.6983 30.8345C21.6983 30.5682 21.722 30.2549 21.7929 29.8398H18.8226C18.2238 29.8398 17.7038 30.2471 17.5541 30.8267L13.9771 44.94C13.7722 45.7624 14.3868 46.5534 15.2377 46.5612H17.7747L17.9086 46.5691C18.3498 44.9791 18.9407 44.3996 19.6498 44.3996C20.2959 44.3996 20.7371 44.8147 20.7371 45.6057C20.7371 45.8642 20.7135 46.1775 20.6426 46.5691H24.125C24.7317 46.5691 25.2596 46.154 25.4014 45.5587L28.6947 31.4376C28.8838 30.623 28.2614 29.8398 27.4184 29.8398H27.4341ZM23.3765 36.1055H20.4062L20.5953 35.1969H23.5735L23.3765 36.1055Z" fill="#151515"/>
</g>
<defs>
<clipPath id="clip0_2100_17339">
<rect width="116" height="47" fill="white"/>
</clipPath>
</defs>
</svg>
