<svg width="75" height="48" viewBox="0 0 75 48" fill="none" xmlns="http://www.w3.org/2000/svg">
<g clip-path="url(#clip0_3789_17373)">
<path d="M2.37893 9H9.38328C11.9048 9 13.3414 10.2548 13.3414 12.2245C13.3414 12.4894 13.3108 12.7594 13.2599 13.0543C12.8778 15.249 11.1866 16.4388 8.79237 16.4388H5.63404L4.86993 19.9632H0L2.37893 9ZM6.63758 11.8195L6.1893 13.8242H7.40169C7.96203 13.8242 8.38994 13.5292 8.50201 12.8994C8.51729 12.7894 8.53257 12.6794 8.53257 12.5844C8.53257 12.0995 8.2473 11.8145 7.68695 11.8145H6.63248L6.63758 11.8195Z" fill="#151515"/>
<path d="M13.0361 16.2989C13.0361 15.9689 13.0667 15.624 13.1329 15.2641C13.6423 12.4445 15.9245 10.7998 18.8281 10.7998C21.91 10.7998 23.6012 12.2546 23.6012 14.4792C23.6012 14.9191 23.535 15.419 23.4433 15.9339H17.4119C17.3661 16.2139 17.3457 16.4689 17.3457 16.6838C17.3457 17.3737 17.5699 17.6687 18.0181 17.6687C18.4155 17.6687 18.767 17.2937 19.0573 16.5089H23.2854C22.5213 18.9984 20.3665 20.2032 17.794 20.2032C14.8242 20.2032 13.0412 18.7485 13.0412 16.2889L13.0361 16.2989ZM17.6615 14.6392H19.4343C19.4801 14.3742 19.5005 14.1692 19.5005 13.9993C19.5005 13.4994 19.2152 13.2294 18.7975 13.2294C18.334 13.2294 17.9519 13.6043 17.6666 14.6392H17.6615Z" fill="#151515"/>
<path d="M25.1599 11.0501H29.8363L29.5357 12.4749C30.3151 11.4401 31.3238 10.9102 32.6177 10.9102C32.745 10.9102 32.8724 10.9102 32.9844 10.9252L32.2356 14.3996C31.823 14.2296 31.3238 14.1346 30.8144 14.1346C30.1623 14.1346 29.5205 14.2746 29.0773 14.5895L27.9107 19.9586H23.2344L25.165 11.0501H25.1599Z" fill="#151515"/>
<path d="M32.3369 16.3592C32.3369 15.9843 32.3675 15.5944 32.4643 15.1694C33.0552 12.3349 35.2253 10.7852 38.1136 10.7852C41.1955 10.7852 42.902 12.2399 42.902 14.5595C42.902 14.7645 42.902 14.9645 42.8715 15.1694H38.6892C38.7045 15.0294 38.7045 14.8895 38.7045 14.7445C38.7045 14.0846 38.5262 13.5997 38.0677 13.5997C37.5583 13.5997 37.1253 14.0546 36.8248 15.4644C36.728 15.9043 36.6974 16.2492 36.6974 16.5142C36.6974 17.1541 36.9216 17.4091 37.3495 17.4091C37.7774 17.4091 38.1951 17.0041 38.5466 15.8743H42.7288C42.1073 18.8788 39.8558 20.2136 37.0795 20.2136C34.3032 20.2136 32.342 18.8688 32.342 16.3592H32.3369Z" fill="#151515"/>
<path d="M43.2637 16.2989C43.2637 15.9689 43.2942 15.624 43.3605 15.2641C43.8699 12.4445 46.152 10.7998 49.0556 10.7998C52.1375 10.7998 53.8288 12.2546 53.8288 14.4792C53.8288 14.9191 53.7626 15.419 53.6709 15.9339H47.6395C47.5936 16.2139 47.5733 16.4689 47.5733 16.6838C47.5733 17.3737 47.7974 17.6687 48.2457 17.6687C48.643 17.6687 48.9945 17.2937 49.2849 16.5089H53.5129C52.7488 18.9984 50.594 20.2032 48.0266 20.2032C45.0568 20.2032 43.2688 18.7485 43.2688 16.2889L43.2637 16.2989ZM47.8942 14.6392H49.6669C49.7128 14.3742 49.728 14.1692 49.728 13.9993C49.728 13.4994 49.4428 13.2294 49.0251 13.2294C48.5615 13.2294 48.1794 13.6043 47.8942 14.6392Z" fill="#151515"/>
<path d="M55.3926 11.0493H60.0689L59.8142 12.2391C60.5631 11.3443 61.4749 10.8594 62.5294 10.8594C64.5721 10.8594 65.5145 12.1742 65.0815 14.1788L63.8385 19.9579H59.1622L60.3899 14.2888C60.4561 13.9439 60.3236 13.7089 59.9416 13.7089C59.748 13.7089 59.5748 13.7889 59.4474 13.9289L58.1383 19.9579H53.4619L55.3926 11.0493Z" fill="#151515"/>
<path d="M66.6045 18.0037C66.6045 17.7688 66.6198 17.5338 66.686 17.2689L67.5164 13.4795H65.4736L65.9983 11.0499H68.041L68.4078 9.3252H73.0027L72.6359 11.0499H74.9995L74.4749 13.4795H72.1112L71.4082 16.719C71.3929 16.784 71.3929 16.8439 71.3929 16.9089C71.3929 17.2839 71.6935 17.4238 72.1571 17.4238H73.6241L73.0638 19.9584H69.3146C67.5113 19.9584 66.5994 19.2685 66.5994 17.9987L66.6045 18.0037Z" fill="#151515"/>
<path d="M20.473 31.8908L21.2881 28.1064L26.0409 28.0664L23.723 38.7496H18.9805L19.8363 34.7953L20.473 31.8858V31.8908Z" fill="#151515"/>
<path d="M38.0684 36.7957C38.0684 36.5608 38.0837 36.3258 38.1499 36.0609L38.9802 32.2715H36.9375L37.4622 29.8419H39.5049L39.8717 28.1172H44.4665L44.0998 29.8419H46.4634L45.9387 32.2715H43.5751L42.8721 35.511C42.8568 35.5759 42.8568 35.6359 42.8568 35.7009C42.8568 36.0759 43.1574 36.2158 43.6209 36.2158H45.088L44.5277 38.7504H40.7784C38.9751 38.7504 38.0633 38.0605 38.0633 36.7957H38.0684Z" fill="#151515"/>
<path d="M45.7549 35.086C45.7549 34.7561 45.7854 34.4111 45.8517 34.0512C46.3611 31.2316 48.6432 29.5869 51.5468 29.5869C54.6288 29.5869 56.32 31.0417 56.32 33.2663C56.32 33.7062 56.2538 34.2061 56.1621 34.7211H50.1307C50.0848 35.001 50.0645 35.251 50.0645 35.4709C50.0645 36.1608 50.2886 36.4558 50.7369 36.4558C51.1342 36.4558 51.4857 36.0808 51.7761 35.296H56.0042C55.24 37.7855 53.0852 38.9903 50.5178 38.9903C47.548 38.9903 45.76 37.5356 45.76 35.076L45.7549 35.086ZM50.3803 33.4263H52.153C52.1989 33.1613 52.2142 32.9564 52.2142 32.7864C52.2142 32.2865 51.9289 32.0165 51.5112 32.0165C51.0476 32.0165 50.6656 32.3914 50.3803 33.4263Z" fill="#151515"/>
<path d="M58.3272 27.7871H62.9882L60.6093 38.7503H55.9482L58.3272 27.7871Z" fill="#151515"/>
<path d="M31.5733 29.5713C28.5423 29.5713 26.3213 31.136 25.7966 34.0505C25.7355 34.4255 25.6846 34.7854 25.6846 35.1154C25.6846 37.605 27.5694 38.9997 30.6156 38.9997C33.6619 38.9997 35.8472 37.45 36.3923 34.5355C36.4585 34.1605 36.4891 33.8156 36.4891 33.4856C36.4891 30.9811 34.6399 29.5713 31.5733 29.5713ZM31.0894 35.1854C30.5851 35.1854 30.1724 34.7804 30.1724 34.2855C30.1724 33.7906 30.5851 33.3857 31.0894 33.3857C31.5937 33.3857 32.0063 33.7906 32.0063 34.2855C32.0063 34.7804 31.5937 35.1854 31.0894 35.1854Z" fill="#151515"/>
<path d="M19.6889 35.4651C20.6961 35.4651 21.5126 34.6639 21.5126 33.6754C21.5126 32.687 20.6961 31.8857 19.6889 31.8857C18.6817 31.8857 17.8652 32.687 17.8652 33.6754C17.8652 34.6639 18.6817 35.4651 19.6889 35.4651Z" fill="#151515"/>
<path d="M8.26801 33.5462C9.2752 33.5462 10.0917 32.7449 10.0917 31.7565C10.0917 30.7681 9.2752 29.9668 8.26801 29.9668C7.26082 29.9668 6.44434 30.7681 6.44434 31.7565C6.44434 32.7449 7.26082 33.5462 8.26801 33.5462Z" fill="#FF7C17"/>
<path d="M17.738 28.0469H15.843C15.5578 29.0667 15.1808 29.4416 14.7223 29.4416C14.3097 29.4416 14.0295 29.1767 14.0295 28.6818C14.0295 28.5118 14.0448 28.3118 14.0907 28.0469H12.1702C11.783 28.0469 11.4468 28.3068 11.3501 28.6768L9.03734 37.6853C8.9049 38.2102 9.30223 38.7151 9.85239 38.7201H11.4927L11.5793 38.7251C11.8646 37.7103 12.2466 37.3403 12.7051 37.3403C13.1228 37.3403 13.4081 37.6053 13.4081 38.1102C13.4081 38.2752 13.3928 38.4751 13.3469 38.7251H15.5985C15.9907 38.7251 16.3321 38.4601 16.4237 38.0802L18.5531 29.0667C18.6753 28.5468 18.2729 28.0469 17.7278 28.0469H17.738ZM15.1146 32.0462H13.1941L13.3164 31.4663H15.2419L15.1146 32.0462Z" fill="#151515"/>
</g>
<defs>
<clipPath id="clip0_3789_17373">
<rect width="75" height="30" fill="white" transform="translate(0 9)"/>
</clipPath>
</defs>
</svg>
